M48
INCH,LZ
;FILE_FORMAT=2:4
;TYPE=PLATED
;Layer: PTH_Through
;EasyEDA v6.5.40, 2024-08-20 21:44:02
;10
;Gerber Generator version 0.2
;Holesize 1 = 0.0120 inch
T01C0.0120
;Holesize 2 = 0.0280 inch
T02C0.0280
;Holesize 3 = 0.0390 inch
T03C0.0390
;Holesize 4 = 0.0430 inch
T04C0.0430
;Holesize 5 = 0.0470 inch
T05C0.0470
%
G05
G90
T01
X013950Y-000450
X013950Y-001800
T02
X003850Y-006183
X003850Y-010317
X009533Y-008150
X013667Y-008150
T03
X001600Y-004150
X001600Y-005150
X007750Y-002000
X007750Y-001000
X007750Y-003900
X007750Y-004900
X002100Y-008250
X001100Y-008250
X007750Y-007900
X006750Y-007900
X011600Y-009650
X011600Y-010650
X009100Y-011300
X009100Y-012300
X001300Y-001100
X001300Y-002100
X022300Y-002000
X022300Y-001000
X022300Y-004600
X022300Y-003600
X016900Y-009200
X015900Y-009200
X019500Y-009200
X018500Y-009200
T04
X022300Y-006200
X022300Y-007200
X022300Y-008200
X022300Y-009200
T05
X004998Y-002400
X005002Y-001400
X004998Y-003400
M30
