G04 Layer: TopSilkscreenLayer*
G04 EasyEDA v6.5.40, 2024-08-20 21:44:02*
G04 Gerber Generator version 0.2*
G04 Scale: 100 percent, Rotated: No, Reflected: No *
G04 Dimensions in inches *
G04 leading zeros omitted , absolute positions ,3 integer and 6 decimal *
%FSLAX36Y36*%
%MOIN*%

%ADD10C,0.0060*%
%ADD11C,0.0100*%
%ADD12C,0.0079*%
%ADD13C,0.0157*%
%ADD14C,0.0197*%
%ADD15C,0.0156*%

%LPD*%
G36*
X1740600Y-1266700D02*
G01*
X1740600Y-1273200D01*
X1756800Y-1273200D01*
X1759480Y-1273360D01*
X1761800Y-1273860D01*
X1763779Y-1274660D01*
X1765400Y-1275800D01*
X1766720Y-1277300D01*
X1767660Y-1279100D01*
X1768220Y-1281200D01*
X1768400Y-1283600D01*
X1768220Y-1286040D01*
X1767700Y-1288120D01*
X1766819Y-1289880D01*
X1765600Y-1291300D01*
X1764019Y-1292440D01*
X1762080Y-1293240D01*
X1759760Y-1293740D01*
X1757100Y-1293899D01*
X1748500Y-1293899D01*
X1748500Y-1273200D01*
X1740600Y-1273200D01*
X1740600Y-1325000D01*
X1748500Y-1325000D01*
X1748500Y-1300400D01*
X1756100Y-1300400D01*
X1757920Y-1300520D01*
X1759540Y-1300860D01*
X1761020Y-1301420D01*
X1762300Y-1302200D01*
X1763540Y-1303380D01*
X1764860Y-1305120D01*
X1766240Y-1307440D01*
X1767700Y-1310300D01*
X1774700Y-1325000D01*
X1783200Y-1325000D01*
X1775200Y-1309100D01*
X1772280Y-1303680D01*
X1769900Y-1300400D01*
X1768760Y-1299400D01*
X1767500Y-1298580D01*
X1766160Y-1297940D01*
X1764700Y-1297500D01*
X1769760Y-1295920D01*
X1773500Y-1293000D01*
X1775900Y-1288800D01*
X1776699Y-1283600D01*
X1775420Y-1276360D01*
X1771600Y-1271000D01*
X1768720Y-1269120D01*
X1765300Y-1267780D01*
X1761320Y-1266960D01*
X1756800Y-1266700D01*
G37*
G36*
X1947000Y-1266700D02*
G01*
X1935701Y-1303500D01*
X1943400Y-1303500D01*
X1951699Y-1273600D01*
X1960000Y-1303500D01*
X1935701Y-1303500D01*
X1929100Y-1325000D01*
X1937300Y-1325000D01*
X1941500Y-1309800D01*
X1961900Y-1309800D01*
X1966200Y-1325000D01*
X1974400Y-1325000D01*
X1956500Y-1266700D01*
G37*
G36*
X1808600Y-1280200D02*
G01*
X1804139Y-1280580D01*
X1800160Y-1281759D01*
X1796639Y-1283680D01*
X1793600Y-1286399D01*
X1791140Y-1289820D01*
X1789400Y-1293740D01*
X1788360Y-1298220D01*
X1788281Y-1299300D01*
X1795700Y-1299300D01*
X1797040Y-1293860D01*
X1799700Y-1289700D01*
X1803560Y-1287140D01*
X1808300Y-1286300D01*
X1810800Y-1286500D01*
X1812980Y-1287120D01*
X1814840Y-1288160D01*
X1816399Y-1289600D01*
X1818600Y-1293640D01*
X1819400Y-1299199D01*
X1788281Y-1299300D01*
X1788000Y-1303200D01*
X1788360Y-1308260D01*
X1789420Y-1312740D01*
X1791200Y-1316660D01*
X1793700Y-1320000D01*
X1796860Y-1322660D01*
X1800580Y-1324580D01*
X1804820Y-1325720D01*
X1809600Y-1326100D01*
X1811420Y-1326060D01*
X1815120Y-1325660D01*
X1818920Y-1324840D01*
X1820880Y-1324280D01*
X1824900Y-1322800D01*
X1824900Y-1315600D01*
X1820800Y-1317580D01*
X1818820Y-1318320D01*
X1815060Y-1319379D01*
X1813240Y-1319720D01*
X1811459Y-1319940D01*
X1809700Y-1320000D01*
X1803680Y-1319019D01*
X1799199Y-1316100D01*
X1796420Y-1311399D01*
X1795500Y-1304800D01*
X1826600Y-1304800D01*
X1826600Y-1301300D01*
X1826300Y-1296660D01*
X1825400Y-1292560D01*
X1823899Y-1288959D01*
X1821800Y-1285900D01*
X1819180Y-1283400D01*
X1816100Y-1281620D01*
X1812580Y-1280560D01*
G37*
G36*
X1835200Y-1281300D02*
G01*
X1850800Y-1325000D01*
X1860000Y-1325000D01*
X1875600Y-1281300D01*
X1868100Y-1281300D01*
X1855400Y-1318000D01*
X1842700Y-1281300D01*
G37*
G36*
X1812200Y-1165600D02*
G01*
X1806940Y-1166100D01*
X1802300Y-1167600D01*
X1798240Y-1170100D01*
X1794800Y-1173600D01*
X1792080Y-1178000D01*
X1790140Y-1183180D01*
X1788980Y-1189140D01*
X1788600Y-1195900D01*
X1788980Y-1202700D01*
X1790140Y-1208680D01*
X1792080Y-1213840D01*
X1794800Y-1218200D01*
X1798220Y-1221660D01*
X1802260Y-1224120D01*
X1806920Y-1225600D01*
X1812200Y-1226100D01*
X1813940Y-1226060D01*
X1817280Y-1225660D01*
X1818899Y-1225300D01*
X1822040Y-1224300D01*
X1825100Y-1222900D01*
X1825100Y-1214800D01*
X1823620Y-1215940D01*
X1822100Y-1216920D01*
X1820520Y-1217780D01*
X1818899Y-1218500D01*
X1817240Y-1219020D01*
X1815580Y-1219400D01*
X1813899Y-1219620D01*
X1812200Y-1219700D01*
X1805480Y-1218220D01*
X1800700Y-1213800D01*
X1799000Y-1210460D01*
X1797780Y-1206380D01*
X1797040Y-1201520D01*
X1796800Y-1195900D01*
X1797040Y-1190280D01*
X1797780Y-1185420D01*
X1799000Y-1181340D01*
X1800700Y-1178000D01*
X1805480Y-1173500D01*
X1812200Y-1172000D01*
X1813860Y-1172080D01*
X1815520Y-1172320D01*
X1817200Y-1172740D01*
X1818899Y-1173300D01*
X1820520Y-1173980D01*
X1822100Y-1174800D01*
X1823620Y-1175780D01*
X1825100Y-1176900D01*
X1825100Y-1168800D01*
X1822040Y-1167400D01*
X1820480Y-1166840D01*
X1818899Y-1166400D01*
X1815620Y-1165800D01*
G37*
G36*
X1951699Y-1165600D02*
G01*
X1947340Y-1166080D01*
X1943520Y-1167520D01*
X1940280Y-1169940D01*
X1937600Y-1173300D01*
X1935540Y-1177560D01*
X1934079Y-1182760D01*
X1933200Y-1188860D01*
X1932900Y-1195900D01*
X1940800Y-1195900D01*
X1940960Y-1190240D01*
X1941480Y-1185320D01*
X1942320Y-1181180D01*
X1943500Y-1177800D01*
X1946900Y-1173380D01*
X1951699Y-1171900D01*
X1956579Y-1173380D01*
X1960000Y-1177800D01*
X1961180Y-1181180D01*
X1962020Y-1185320D01*
X1962540Y-1190240D01*
X1962700Y-1195900D01*
X1962540Y-1201560D01*
X1962020Y-1206440D01*
X1961180Y-1210560D01*
X1960000Y-1213900D01*
X1956579Y-1218400D01*
X1951699Y-1219900D01*
X1946900Y-1218400D01*
X1943500Y-1213900D01*
X1942320Y-1210560D01*
X1941480Y-1206440D01*
X1940960Y-1201560D01*
X1940800Y-1195900D01*
X1932900Y-1195900D01*
X1933200Y-1202900D01*
X1934079Y-1209000D01*
X1935540Y-1214200D01*
X1937600Y-1218500D01*
X1940280Y-1221820D01*
X1943520Y-1224200D01*
X1947340Y-1225620D01*
X1951699Y-1226100D01*
X1956100Y-1225620D01*
X1959920Y-1224200D01*
X1963160Y-1221820D01*
X1965800Y-1218500D01*
X1967900Y-1214200D01*
X1969400Y-1209000D01*
X1970300Y-1202900D01*
X1970600Y-1195900D01*
X1970300Y-1188860D01*
X1969400Y-1182760D01*
X1967900Y-1177560D01*
X1965800Y-1173300D01*
X1963160Y-1169940D01*
X1959920Y-1167520D01*
X1956100Y-1166080D01*
G37*
G36*
X1999900Y-1165600D02*
G01*
X1995500Y-1166080D01*
X1991680Y-1167520D01*
X1988440Y-1169940D01*
X1985800Y-1173300D01*
X1983700Y-1177560D01*
X1982200Y-1182760D01*
X1981300Y-1188860D01*
X1981000Y-1195900D01*
X1988899Y-1195900D01*
X1989079Y-1190240D01*
X1989600Y-1185320D01*
X1990480Y-1181180D01*
X1991699Y-1177800D01*
X1995100Y-1173380D01*
X1999900Y-1171900D01*
X2004700Y-1173380D01*
X2008100Y-1177800D01*
X2009319Y-1181180D01*
X2010200Y-1185320D01*
X2010720Y-1190240D01*
X2010900Y-1195900D01*
X2010720Y-1201560D01*
X2010200Y-1206440D01*
X2009319Y-1210560D01*
X2008100Y-1213900D01*
X2004700Y-1218400D01*
X1999900Y-1219900D01*
X1995100Y-1218400D01*
X1991699Y-1213900D01*
X1990480Y-1210560D01*
X1989600Y-1206440D01*
X1989079Y-1201560D01*
X1988899Y-1195900D01*
X1981000Y-1195900D01*
X1981300Y-1202900D01*
X1982200Y-1209000D01*
X1983700Y-1214200D01*
X1985800Y-1218500D01*
X1988440Y-1221820D01*
X1991680Y-1224200D01*
X1995500Y-1225620D01*
X1999900Y-1226100D01*
X2004259Y-1225620D01*
X2008080Y-1224200D01*
X2011320Y-1221820D01*
X2014000Y-1218500D01*
X2016100Y-1214200D01*
X2017600Y-1209000D01*
X2018500Y-1202900D01*
X2018800Y-1195900D01*
X2018500Y-1188860D01*
X2017600Y-1182760D01*
X2016100Y-1177560D01*
X2014000Y-1173300D01*
X2011320Y-1169940D01*
X2008080Y-1167520D01*
X2004259Y-1166080D01*
G37*
G36*
X2144400Y-1165600D02*
G01*
X2140000Y-1166080D01*
X2136180Y-1167520D01*
X2132940Y-1169940D01*
X2130300Y-1173300D01*
X2128200Y-1177560D01*
X2126700Y-1182760D01*
X2125800Y-1188860D01*
X2125500Y-1195900D01*
X2133400Y-1195900D01*
X2133580Y-1190240D01*
X2134100Y-1185320D01*
X2134980Y-1181180D01*
X2136200Y-1177800D01*
X2139600Y-1173380D01*
X2144400Y-1171900D01*
X2149200Y-1173380D01*
X2152600Y-1177800D01*
X2153820Y-1181180D01*
X2154700Y-1185320D01*
X2155220Y-1190240D01*
X2155400Y-1195900D01*
X2155220Y-1201560D01*
X2154700Y-1206440D01*
X2153820Y-1210560D01*
X2152600Y-1213900D01*
X2149200Y-1218400D01*
X2144400Y-1219900D01*
X2139600Y-1218400D01*
X2136200Y-1213900D01*
X2134980Y-1210560D01*
X2134100Y-1206440D01*
X2133580Y-1201560D01*
X2133400Y-1195900D01*
X2125500Y-1195900D01*
X2125800Y-1202900D01*
X2126700Y-1209000D01*
X2128200Y-1214200D01*
X2130300Y-1218500D01*
X2132940Y-1221820D01*
X2136180Y-1224200D01*
X2140000Y-1225620D01*
X2144400Y-1226100D01*
X2148760Y-1225620D01*
X2152580Y-1224200D01*
X2155820Y-1221820D01*
X2158500Y-1218500D01*
X2160600Y-1214200D01*
X2162100Y-1209000D01*
X2163000Y-1202900D01*
X2163300Y-1195900D01*
X2163000Y-1188860D01*
X2162100Y-1182760D01*
X2160600Y-1177560D01*
X2158500Y-1173300D01*
X2155820Y-1169940D01*
X2152580Y-1167520D01*
X2148760Y-1166080D01*
G37*
G36*
X2192500Y-1165600D02*
G01*
X2188140Y-1166080D01*
X2184320Y-1167520D01*
X2181080Y-1169940D01*
X2178400Y-1173300D01*
X2176340Y-1177560D01*
X2174880Y-1182760D01*
X2174000Y-1188860D01*
X2173700Y-1195900D01*
X2181600Y-1195900D01*
X2181760Y-1190240D01*
X2182280Y-1185320D01*
X2183120Y-1181180D01*
X2184300Y-1177800D01*
X2187700Y-1173380D01*
X2192500Y-1171900D01*
X2197380Y-1173380D01*
X2200800Y-1177800D01*
X2201980Y-1181180D01*
X2202820Y-1185320D01*
X2203340Y-1190240D01*
X2203500Y-1195900D01*
X2203340Y-1201560D01*
X2202820Y-1206440D01*
X2201980Y-1210560D01*
X2200800Y-1213900D01*
X2197380Y-1218400D01*
X2192500Y-1219900D01*
X2187700Y-1218400D01*
X2184300Y-1213900D01*
X2183120Y-1210560D01*
X2182280Y-1206440D01*
X2181760Y-1201560D01*
X2181600Y-1195900D01*
X2173700Y-1195900D01*
X2174000Y-1202900D01*
X2174880Y-1209000D01*
X2176340Y-1214200D01*
X2178400Y-1218500D01*
X2181080Y-1221820D01*
X2184320Y-1224200D01*
X2188140Y-1225620D01*
X2192500Y-1226100D01*
X2196920Y-1225620D01*
X2200740Y-1224200D01*
X2204020Y-1221820D01*
X2206700Y-1218500D01*
X2208760Y-1214200D01*
X2210220Y-1209000D01*
X2211100Y-1202900D01*
X2211400Y-1195900D01*
X2211100Y-1188860D01*
X2210220Y-1182760D01*
X2208760Y-1177560D01*
X2206700Y-1173300D01*
X2204020Y-1169940D01*
X2200740Y-1167520D01*
X2196920Y-1166080D01*
G37*
G36*
X2240700Y-1165600D02*
G01*
X2236340Y-1166080D01*
X2232520Y-1167520D01*
X2229280Y-1169940D01*
X2226600Y-1173300D01*
X2224500Y-1177560D01*
X2223000Y-1182760D01*
X2222100Y-1188860D01*
X2221800Y-1195900D01*
X2229800Y-1195900D01*
X2229960Y-1190240D01*
X2230480Y-1185320D01*
X2231320Y-1181180D01*
X2232500Y-1177800D01*
X2235900Y-1173380D01*
X2240700Y-1171900D01*
X2245580Y-1173380D01*
X2249000Y-1177800D01*
X2250180Y-1181180D01*
X2251020Y-1185320D01*
X2251540Y-1190240D01*
X2251700Y-1195900D01*
X2251540Y-1201560D01*
X2251020Y-1206440D01*
X2250180Y-1210560D01*
X2249000Y-1213900D01*
X2245580Y-1218400D01*
X2240700Y-1219900D01*
X2235900Y-1218400D01*
X2232500Y-1213900D01*
X2231320Y-1210560D01*
X2230480Y-1206440D01*
X2229960Y-1201560D01*
X2229800Y-1195900D01*
X2221800Y-1195900D01*
X2222100Y-1202900D01*
X2223000Y-1209000D01*
X2224500Y-1214200D01*
X2226600Y-1218500D01*
X2229280Y-1221820D01*
X2232520Y-1224200D01*
X2236340Y-1225620D01*
X2240700Y-1226100D01*
X2245060Y-1225620D01*
X2248880Y-1224200D01*
X2252120Y-1221820D01*
X2254800Y-1218500D01*
X2256900Y-1214200D01*
X2258400Y-1209000D01*
X2259300Y-1202900D01*
X2259600Y-1195900D01*
X2259300Y-1188860D01*
X2258400Y-1182760D01*
X2256900Y-1177560D01*
X2254800Y-1173300D01*
X2252120Y-1169940D01*
X2248880Y-1167520D01*
X2245060Y-1166080D01*
G37*
G36*
X2288900Y-1165600D02*
G01*
X2284500Y-1166080D01*
X2280680Y-1167520D01*
X2277440Y-1169940D01*
X2274800Y-1173300D01*
X2272700Y-1177560D01*
X2271200Y-1182760D01*
X2270300Y-1188860D01*
X2270000Y-1195900D01*
X2277900Y-1195900D01*
X2278060Y-1190240D01*
X2278580Y-1185320D01*
X2279420Y-1181180D01*
X2280600Y-1177800D01*
X2284080Y-1173380D01*
X2288900Y-1171900D01*
X2293700Y-1173380D01*
X2297100Y-1177800D01*
X2298280Y-1181180D01*
X2299120Y-1185320D01*
X2299640Y-1190240D01*
X2299800Y-1195900D01*
X2299640Y-1201560D01*
X2299120Y-1206440D01*
X2298280Y-1210560D01*
X2297100Y-1213900D01*
X2293700Y-1218400D01*
X2288900Y-1219900D01*
X2284080Y-1218400D01*
X2280600Y-1213900D01*
X2279420Y-1210560D01*
X2278580Y-1206440D01*
X2278060Y-1201560D01*
X2277900Y-1195900D01*
X2270000Y-1195900D01*
X2270300Y-1202900D01*
X2271200Y-1209000D01*
X2272700Y-1214200D01*
X2274800Y-1218500D01*
X2277440Y-1221820D01*
X2280680Y-1224200D01*
X2284500Y-1225620D01*
X2288900Y-1226100D01*
X2293260Y-1225620D01*
X2297080Y-1224200D01*
X2300320Y-1221820D01*
X2303000Y-1218500D01*
X2305100Y-1214200D01*
X2306600Y-1209000D01*
X2307500Y-1202900D01*
X2307800Y-1195900D01*
X2307500Y-1188860D01*
X2306600Y-1182760D01*
X2305100Y-1177560D01*
X2303000Y-1173300D01*
X2300320Y-1169940D01*
X2297080Y-1167520D01*
X2293260Y-1166080D01*
G37*
G36*
X1742700Y-1166700D02*
G01*
X1742700Y-1173200D01*
X1759700Y-1173200D01*
X1762300Y-1173380D01*
X1764600Y-1173900D01*
X1766600Y-1174780D01*
X1768300Y-1176000D01*
X1769620Y-1177600D01*
X1770560Y-1179480D01*
X1771120Y-1181640D01*
X1771300Y-1184100D01*
X1771120Y-1186560D01*
X1770560Y-1188720D01*
X1769620Y-1190600D01*
X1768300Y-1192200D01*
X1766600Y-1193460D01*
X1764600Y-1194380D01*
X1762300Y-1194920D01*
X1759700Y-1195100D01*
X1750600Y-1195100D01*
X1750600Y-1173200D01*
X1742700Y-1173200D01*
X1742700Y-1225000D01*
X1750600Y-1225000D01*
X1750600Y-1201600D01*
X1759700Y-1201600D01*
X1764300Y-1201320D01*
X1768320Y-1200480D01*
X1771759Y-1199060D01*
X1774600Y-1197100D01*
X1776780Y-1194640D01*
X1778360Y-1191640D01*
X1779280Y-1188140D01*
X1779600Y-1184100D01*
X1779280Y-1180060D01*
X1778320Y-1176560D01*
X1776740Y-1173560D01*
X1774500Y-1171100D01*
X1771699Y-1169180D01*
X1768300Y-1167800D01*
X1764300Y-1166980D01*
X1759700Y-1166700D01*
G37*
G36*
X1837800Y-1166700D02*
G01*
X1837800Y-1173200D01*
X1854900Y-1173200D01*
X1857600Y-1173320D01*
X1859880Y-1173680D01*
X1861740Y-1174260D01*
X1863200Y-1175100D01*
X1864300Y-1176260D01*
X1865080Y-1177700D01*
X1865540Y-1179460D01*
X1865700Y-1181500D01*
X1865540Y-1183780D01*
X1865080Y-1185720D01*
X1864300Y-1187340D01*
X1863200Y-1188600D01*
X1861699Y-1189520D01*
X1859820Y-1190180D01*
X1857560Y-1190560D01*
X1854900Y-1190700D01*
X1845700Y-1190700D01*
X1845700Y-1173200D01*
X1837800Y-1173200D01*
X1837800Y-1197100D01*
X1855100Y-1197100D01*
X1860760Y-1197780D01*
X1864700Y-1199800D01*
X1866060Y-1201340D01*
X1867020Y-1203240D01*
X1867600Y-1205540D01*
X1867800Y-1208200D01*
X1867620Y-1210760D01*
X1867080Y-1212920D01*
X1866160Y-1214700D01*
X1864900Y-1216100D01*
X1861000Y-1217900D01*
X1855100Y-1218500D01*
X1845700Y-1218500D01*
X1845700Y-1197100D01*
X1837800Y-1197100D01*
X1837800Y-1225000D01*
X1855100Y-1225000D01*
X1859920Y-1224740D01*
X1864100Y-1224000D01*
X1867620Y-1222740D01*
X1870500Y-1221000D01*
X1874400Y-1215960D01*
X1875700Y-1209000D01*
X1874900Y-1203280D01*
X1872500Y-1198700D01*
X1868600Y-1195420D01*
X1863500Y-1193800D01*
X1865900Y-1193260D01*
X1867980Y-1192420D01*
X1869740Y-1191300D01*
X1871200Y-1189900D01*
X1872300Y-1188220D01*
X1873080Y-1186240D01*
X1873540Y-1184020D01*
X1873700Y-1181500D01*
X1872500Y-1175200D01*
X1868899Y-1170500D01*
X1866200Y-1168840D01*
X1863000Y-1167660D01*
X1859300Y-1166940D01*
X1855100Y-1166700D01*
G37*
G36*
X2046699Y-1166700D02*
G01*
X2033600Y-1169600D01*
X2033600Y-1176800D01*
X2046800Y-1173800D01*
X2046800Y-1218400D01*
X2034500Y-1218400D01*
X2034500Y-1225000D01*
X2066699Y-1225000D01*
X2066699Y-1218400D01*
X2054600Y-1218400D01*
X2054600Y-1166700D01*
G37*
G36*
X1951600Y-1190400D02*
G01*
X1950580Y-1190500D01*
X1949660Y-1190800D01*
X1948779Y-1191300D01*
X1948000Y-1192000D01*
X1947340Y-1192840D01*
X1946879Y-1193720D01*
X1946600Y-1194680D01*
X1946500Y-1195700D01*
X1946600Y-1196800D01*
X1946879Y-1197800D01*
X1947340Y-1198700D01*
X1948000Y-1199500D01*
X1948779Y-1200120D01*
X1949660Y-1200560D01*
X1950580Y-1200820D01*
X1951600Y-1200900D01*
X1952700Y-1200800D01*
X1953700Y-1200520D01*
X1954600Y-1200060D01*
X1955400Y-1199400D01*
X1956100Y-1198600D01*
X1956600Y-1197720D01*
X1956900Y-1196760D01*
X1957000Y-1195700D01*
X1956900Y-1194680D01*
X1956600Y-1193720D01*
X1956100Y-1192840D01*
X1955400Y-1192000D01*
X1954560Y-1191300D01*
X1953640Y-1190800D01*
X1952660Y-1190500D01*
G37*
G36*
X1999800Y-1190400D02*
G01*
X1998779Y-1190500D01*
X1997840Y-1190800D01*
X1996980Y-1191300D01*
X1996200Y-1192000D01*
X1995540Y-1192840D01*
X1995080Y-1193720D01*
X1994800Y-1194680D01*
X1994700Y-1195700D01*
X1994800Y-1196800D01*
X1995080Y-1197800D01*
X1995540Y-1198700D01*
X1996200Y-1199500D01*
X1996940Y-1200120D01*
X1997800Y-1200560D01*
X1998740Y-1200820D01*
X1999800Y-1200900D01*
X2000860Y-1200800D01*
X2001840Y-1200520D01*
X2002760Y-1200060D01*
X2003600Y-1199400D01*
X2004259Y-1198600D01*
X2004720Y-1197720D01*
X2005000Y-1196760D01*
X2005100Y-1195700D01*
X2005000Y-1194680D01*
X2004720Y-1193720D01*
X2004259Y-1192840D01*
X2003600Y-1192000D01*
X2002760Y-1191300D01*
X2001840Y-1190800D01*
X2000860Y-1190500D01*
G37*
G36*
X2144300Y-1190400D02*
G01*
X2143280Y-1190500D01*
X2142360Y-1190800D01*
X2141480Y-1191300D01*
X2140700Y-1192000D01*
X2140040Y-1192840D01*
X2139580Y-1193720D01*
X2139300Y-1194680D01*
X2139200Y-1195700D01*
X2139280Y-1196800D01*
X2139540Y-1197800D01*
X2139980Y-1198700D01*
X2140600Y-1199500D01*
X2141400Y-1200120D01*
X2142280Y-1200560D01*
X2143240Y-1200820D01*
X2144300Y-1200900D01*
X2145360Y-1200800D01*
X2146360Y-1200520D01*
X2147260Y-1200060D01*
X2148100Y-1199400D01*
X2148760Y-1198600D01*
X2149220Y-1197720D01*
X2149500Y-1196760D01*
X2149600Y-1195700D01*
X2149500Y-1194680D01*
X2149200Y-1193720D01*
X2148700Y-1192840D01*
X2148000Y-1192000D01*
X2147200Y-1191300D01*
X2146320Y-1190800D01*
X2145360Y-1190500D01*
G37*
G36*
X2192500Y-1190400D02*
G01*
X2191480Y-1190500D01*
X2190520Y-1190800D01*
X2189640Y-1191300D01*
X2188800Y-1192000D01*
X2188140Y-1192840D01*
X2187680Y-1193720D01*
X2187400Y-1194680D01*
X2187300Y-1195700D01*
X2187400Y-1196800D01*
X2187680Y-1197800D01*
X2188140Y-1198700D01*
X2188800Y-1199500D01*
X2189600Y-1200120D01*
X2190480Y-1200560D01*
X2191440Y-1200820D01*
X2192500Y-1200900D01*
X2193560Y-1200800D01*
X2194520Y-1200520D01*
X2195400Y-1200060D01*
X2196200Y-1199400D01*
X2196900Y-1198600D01*
X2197400Y-1197720D01*
X2197700Y-1196760D01*
X2197800Y-1195700D01*
X2197700Y-1194680D01*
X2197400Y-1193720D01*
X2196900Y-1192840D01*
X2196200Y-1192000D01*
X2195360Y-1191300D01*
X2194480Y-1190800D01*
X2193520Y-1190500D01*
G37*
G36*
X2240600Y-1190400D02*
G01*
X2239580Y-1190500D01*
X2238660Y-1190800D01*
X2237780Y-1191300D01*
X2237000Y-1192000D01*
X2236340Y-1192840D01*
X2235880Y-1193720D01*
X2235600Y-1194680D01*
X2235500Y-1195700D01*
X2235600Y-1196800D01*
X2235880Y-1197800D01*
X2236340Y-1198700D01*
X2237000Y-1199500D01*
X2237740Y-1200120D01*
X2238600Y-1200560D01*
X2239540Y-1200820D01*
X2240600Y-1200900D01*
X2241700Y-1200800D01*
X2242700Y-1200520D01*
X2243600Y-1200060D01*
X2244400Y-1199400D01*
X2245060Y-1198600D01*
X2245520Y-1197720D01*
X2245800Y-1196760D01*
X2245900Y-1195700D01*
X2245800Y-1194680D01*
X2245520Y-1193720D01*
X2245060Y-1192840D01*
X2244400Y-1192000D01*
X2243560Y-1191300D01*
X2242640Y-1190800D01*
X2241660Y-1190500D01*
G37*
G36*
X2288800Y-1190400D02*
G01*
X2287780Y-1190500D01*
X2286860Y-1190800D01*
X2285980Y-1191300D01*
X2285200Y-1192000D01*
X2284540Y-1192840D01*
X2284080Y-1193720D01*
X2283800Y-1194680D01*
X2283700Y-1195700D01*
X2283780Y-1196800D01*
X2284040Y-1197800D01*
X2284480Y-1198700D01*
X2285100Y-1199500D01*
X2285900Y-1200120D01*
X2286780Y-1200560D01*
X2287740Y-1200820D01*
X2288800Y-1200900D01*
X2289860Y-1200800D01*
X2290860Y-1200520D01*
X2291760Y-1200060D01*
X2292600Y-1199400D01*
X2293260Y-1198600D01*
X2293720Y-1197720D01*
X2294000Y-1196760D01*
X2294100Y-1195700D01*
X2294000Y-1194680D01*
X2293700Y-1193720D01*
X2293200Y-1192840D01*
X2292500Y-1192000D01*
X2291700Y-1191300D01*
X2290820Y-1190800D01*
X2289860Y-1190500D01*
G37*
G36*
X1893400Y-1199900D02*
G01*
X1893400Y-1206300D01*
X1913800Y-1206300D01*
X1913800Y-1199900D01*
G37*
G36*
X2086100Y-1199900D02*
G01*
X2086100Y-1206300D01*
X2106400Y-1206300D01*
X2106400Y-1199900D01*
G37*
G36*
X1756800Y-1065600D02*
G01*
X1756800Y-1080400D01*
X1743700Y-1072400D01*
X1741500Y-1076300D01*
X1755500Y-1083900D01*
X1741500Y-1091500D01*
X1743700Y-1095300D01*
X1756800Y-1087400D01*
X1756800Y-1102100D01*
X1761300Y-1102100D01*
X1761300Y-1087400D01*
X1774500Y-1095300D01*
X1776699Y-1091500D01*
X1762700Y-1083900D01*
X1776699Y-1076300D01*
X1774500Y-1072400D01*
X1761300Y-1080400D01*
X1761300Y-1065600D01*
G37*
D10*
X335199Y-485700D02*
G01*
X339299Y-483600D01*
X343400Y-479499D01*
X345399Y-475500D01*
X345399Y-467300D01*
X343400Y-463200D01*
X339299Y-459099D01*
X335199Y-456999D01*
X329000Y-455000D01*
X318800Y-455000D01*
X312699Y-456999D01*
X308600Y-459099D01*
X304499Y-463200D01*
X302500Y-467300D01*
X302500Y-475500D01*
X304499Y-479499D01*
X308600Y-483600D01*
X312699Y-485700D01*
X337199Y-499200D02*
G01*
X339299Y-503299D01*
X345399Y-509400D01*
X302500Y-509400D01*
X599800Y-129299D02*
G01*
X595700Y-131399D01*
X591599Y-135500D01*
X589600Y-139499D01*
X589600Y-147699D01*
X591599Y-151799D01*
X595700Y-155900D01*
X599800Y-158000D01*
X605999Y-160000D01*
X616199Y-160000D01*
X622300Y-158000D01*
X626399Y-155900D01*
X630500Y-151799D01*
X632500Y-147699D01*
X632500Y-139499D01*
X630500Y-135500D01*
X626399Y-131399D01*
X622300Y-129299D01*
X599800Y-113800D02*
G01*
X597800Y-113800D01*
X593699Y-111700D01*
X591599Y-109699D01*
X589600Y-105599D01*
X589600Y-97399D01*
X591599Y-93299D01*
X593699Y-91300D01*
X597800Y-89200D01*
X601900Y-89200D01*
X605999Y-91300D01*
X612100Y-95399D01*
X632500Y-115799D01*
X632500Y-87199D01*
X950200Y-460700D02*
G01*
X954300Y-458600D01*
X958400Y-454499D01*
X960399Y-450500D01*
X960399Y-442300D01*
X958400Y-438200D01*
X954300Y-434099D01*
X950200Y-431999D01*
X943999Y-430000D01*
X933800Y-430000D01*
X927700Y-431999D01*
X923599Y-434099D01*
X919499Y-438200D01*
X917500Y-442300D01*
X917500Y-450500D01*
X919499Y-454499D01*
X923599Y-458600D01*
X927700Y-460700D01*
X960399Y-478299D02*
G01*
X960399Y-500799D01*
X943999Y-488499D01*
X943999Y-494600D01*
X941999Y-498699D01*
X940000Y-500799D01*
X933800Y-502800D01*
X929700Y-502800D01*
X923599Y-500799D01*
X919499Y-496700D01*
X917500Y-490500D01*
X917500Y-484400D01*
X919499Y-478299D01*
X921499Y-476199D01*
X925600Y-474200D01*
X139299Y-1000199D02*
G01*
X141399Y-1004299D01*
X145500Y-1008400D01*
X149499Y-1010399D01*
X157699Y-1010399D01*
X161799Y-1008400D01*
X165900Y-1004299D01*
X168000Y-1000199D01*
X170000Y-994000D01*
X170000Y-983800D01*
X168000Y-977699D01*
X165900Y-973600D01*
X161799Y-969499D01*
X157699Y-967500D01*
X149499Y-967500D01*
X145500Y-969499D01*
X141399Y-973600D01*
X139299Y-977699D01*
X105399Y-1010399D02*
G01*
X125799Y-981799D01*
X95100Y-981799D01*
X105399Y-1010399D02*
G01*
X105399Y-967500D01*
X704299Y-965199D02*
G01*
X706399Y-969299D01*
X710500Y-973400D01*
X714499Y-975399D01*
X722699Y-975399D01*
X726799Y-973400D01*
X730900Y-969299D01*
X733000Y-965199D01*
X735000Y-959000D01*
X735000Y-948800D01*
X733000Y-942699D01*
X730900Y-938600D01*
X726799Y-934499D01*
X722699Y-932500D01*
X714499Y-932500D01*
X710500Y-934499D01*
X706399Y-938600D01*
X704299Y-942699D01*
X666300Y-975399D02*
G01*
X686700Y-975399D01*
X688800Y-956999D01*
X686700Y-959000D01*
X680599Y-961100D01*
X674499Y-961100D01*
X668299Y-959000D01*
X664200Y-955000D01*
X662199Y-948800D01*
X662199Y-944699D01*
X664200Y-938600D01*
X668299Y-934499D01*
X674499Y-932500D01*
X680599Y-932500D01*
X686700Y-934499D01*
X688800Y-936500D01*
X690799Y-940599D01*
X1345399Y-1001999D02*
G01*
X1302500Y-1001999D01*
X1345399Y-1001999D02*
G01*
X1345399Y-1016300D01*
X1343400Y-1022500D01*
X1339300Y-1026500D01*
X1335200Y-1028600D01*
X1328999Y-1030599D01*
X1318800Y-1030599D01*
X1312700Y-1028600D01*
X1308599Y-1026500D01*
X1304499Y-1022500D01*
X1302500Y-1016300D01*
X1302500Y-1001999D01*
X1337200Y-1044099D02*
G01*
X1339300Y-1048200D01*
X1345399Y-1054400D01*
X1302500Y-1054400D01*
X1095399Y-1170000D02*
G01*
X1052500Y-1170000D01*
X1095399Y-1170000D02*
G01*
X1095399Y-1184299D01*
X1093400Y-1190500D01*
X1089300Y-1194499D01*
X1085200Y-1196599D01*
X1078999Y-1198600D01*
X1068800Y-1198600D01*
X1062700Y-1196599D01*
X1058599Y-1194499D01*
X1054499Y-1190500D01*
X1052500Y-1184299D01*
X1052500Y-1170000D01*
X1085200Y-1214200D02*
G01*
X1087200Y-1214200D01*
X1091300Y-1216199D01*
X1093400Y-1218299D01*
X1095399Y-1222399D01*
X1095399Y-1230500D01*
X1093400Y-1234600D01*
X1091300Y-1236700D01*
X1087200Y-1238699D01*
X1083100Y-1238699D01*
X1078999Y-1236700D01*
X1072899Y-1232600D01*
X1052500Y-1212100D01*
X1052500Y-1240799D01*
X19600Y-165000D02*
G01*
X62500Y-165000D01*
X19600Y-136399D02*
G01*
X62500Y-136399D01*
X40000Y-165000D02*
G01*
X40000Y-136399D01*
X27800Y-122899D02*
G01*
X25700Y-118800D01*
X19600Y-112600D01*
X62500Y-112600D01*
X2340399Y-145000D02*
G01*
X2297500Y-145000D01*
X2340399Y-173600D02*
G01*
X2297500Y-173600D01*
X2320000Y-145000D02*
G01*
X2320000Y-173600D01*
X2330200Y-189200D02*
G01*
X2332200Y-189200D01*
X2336300Y-191199D01*
X2338400Y-193299D01*
X2340399Y-197399D01*
X2340399Y-205500D01*
X2338400Y-209600D01*
X2336300Y-211700D01*
X2332200Y-213699D01*
X2328100Y-213699D01*
X2323999Y-211700D01*
X2317899Y-207600D01*
X2297500Y-187100D01*
X2297500Y-215799D01*
X2340399Y-405000D02*
G01*
X2297500Y-405000D01*
X2340399Y-433600D02*
G01*
X2297500Y-433600D01*
X2320000Y-405000D02*
G01*
X2320000Y-433600D01*
X2340399Y-451199D02*
G01*
X2340399Y-473699D01*
X2323999Y-461500D01*
X2323999Y-467600D01*
X2321999Y-471700D01*
X2320000Y-473699D01*
X2313800Y-475799D01*
X2309700Y-475799D01*
X2303599Y-473699D01*
X2299499Y-469600D01*
X2297500Y-463499D01*
X2297500Y-457399D01*
X2299499Y-451199D01*
X2301499Y-449200D01*
X2305600Y-447100D01*
X1635000Y-809600D02*
G01*
X1635000Y-852500D01*
X1663599Y-809600D02*
G01*
X1663599Y-852500D01*
X1635000Y-830000D02*
G01*
X1663599Y-830000D01*
X1697600Y-809600D02*
G01*
X1677100Y-838200D01*
X1707799Y-838200D01*
X1697600Y-809600D02*
G01*
X1697600Y-852500D01*
X1895000Y-809600D02*
G01*
X1895000Y-852500D01*
X1923599Y-809600D02*
G01*
X1923599Y-852500D01*
X1895000Y-830000D02*
G01*
X1923599Y-830000D01*
X1961700Y-809600D02*
G01*
X1941199Y-809600D01*
X1939200Y-828000D01*
X1941199Y-825999D01*
X1947399Y-823899D01*
X1953500Y-823899D01*
X1959600Y-825999D01*
X1963699Y-830000D01*
X1965799Y-836199D01*
X1965799Y-840300D01*
X1963699Y-846399D01*
X1959600Y-850500D01*
X1953500Y-852500D01*
X1947399Y-852500D01*
X1941199Y-850500D01*
X1939200Y-848499D01*
X1937100Y-844400D01*
X2335399Y-760000D02*
G01*
X2292500Y-760000D01*
X2335399Y-788600D02*
G01*
X2292500Y-788600D01*
X2315000Y-760000D02*
G01*
X2315000Y-788600D01*
X2329300Y-826700D02*
G01*
X2333400Y-824600D01*
X2335399Y-818499D01*
X2335399Y-814400D01*
X2333400Y-808299D01*
X2327200Y-804200D01*
X2316999Y-802100D01*
X2306800Y-802100D01*
X2298599Y-804200D01*
X2294499Y-808299D01*
X2292500Y-814400D01*
X2292500Y-816500D01*
X2294499Y-822600D01*
X2298599Y-826700D01*
X2304700Y-828699D01*
X2306800Y-828699D01*
X2312899Y-826700D01*
X2316999Y-822600D01*
X2318999Y-816500D01*
X2318999Y-814400D01*
X2316999Y-808299D01*
X2312899Y-804200D01*
X2306800Y-802100D01*
X490399Y-825000D02*
G01*
X447500Y-825000D01*
X490399Y-825000D02*
G01*
X490399Y-843400D01*
X488400Y-849499D01*
X486300Y-851599D01*
X482199Y-853600D01*
X478099Y-853600D01*
X474000Y-851599D01*
X471999Y-849499D01*
X470000Y-843400D01*
X470000Y-825000D01*
X470000Y-839299D02*
G01*
X447500Y-853600D01*
X482199Y-867100D02*
G01*
X484299Y-871199D01*
X490399Y-877399D01*
X447500Y-877399D01*
X1160000Y-709600D02*
G01*
X1160000Y-752500D01*
X1160000Y-709600D02*
G01*
X1178400Y-709600D01*
X1184499Y-711599D01*
X1186599Y-713699D01*
X1188599Y-717800D01*
X1188599Y-721900D01*
X1186599Y-725999D01*
X1184499Y-728000D01*
X1178400Y-730000D01*
X1160000Y-730000D01*
X1174300Y-730000D02*
G01*
X1188599Y-752500D01*
X1204200Y-719800D02*
G01*
X1204200Y-717800D01*
X1206199Y-713699D01*
X1208299Y-711599D01*
X1212399Y-709600D01*
X1220500Y-709600D01*
X1224600Y-711599D01*
X1226700Y-713699D01*
X1228699Y-717800D01*
X1228699Y-721900D01*
X1226700Y-725999D01*
X1222600Y-732100D01*
X1202100Y-752500D01*
X1230799Y-752500D01*
X1570000Y295399D02*
G01*
X1570000Y264699D01*
X1571999Y258600D01*
X1576099Y254499D01*
X1582299Y252500D01*
X1586400Y252500D01*
X1592500Y254499D01*
X1596599Y258600D01*
X1598599Y264699D01*
X1598599Y295399D01*
X1612100Y287199D02*
G01*
X1616199Y289299D01*
X1622399Y295399D01*
X1622399Y252500D01*
X304405Y-245005D02*
G01*
X335104Y-245005D01*
X341204Y-243004D01*
X345304Y-238904D01*
X347305Y-232705D01*
X347305Y-228604D01*
X345304Y-222505D01*
X341204Y-218404D01*
X335104Y-216404D01*
X304405Y-216404D01*
X314605Y-200805D02*
G01*
X312604Y-200805D01*
X308505Y-198805D01*
X306404Y-196705D01*
X304405Y-192604D01*
X304405Y-184504D01*
X306404Y-180405D01*
X308505Y-178305D01*
X312604Y-176305D01*
X316705Y-176305D01*
X320805Y-178305D01*
X326905Y-182404D01*
X347305Y-202905D01*
X347305Y-174205D01*
G36*
X70000Y-550000D02*
G01*
X74300Y-554520D01*
X78820Y-558820D01*
X83560Y-562880D01*
X88520Y-566680D01*
X93640Y-570240D01*
X98960Y-573520D01*
X104420Y-576520D01*
X110040Y-579240D01*
X115800Y-581660D01*
X121660Y-583780D01*
X127640Y-585600D01*
X133680Y-587120D01*
X139820Y-588300D01*
X145980Y-589180D01*
X152200Y-589740D01*
X158440Y-589980D01*
X164680Y-589900D01*
X170900Y-589500D01*
X177100Y-588780D01*
X183260Y-587740D01*
X186320Y-587120D01*
X192360Y-585600D01*
X198340Y-583780D01*
X204200Y-581660D01*
X209960Y-579240D01*
X215580Y-576520D01*
X221040Y-573520D01*
X226360Y-570240D01*
X231480Y-566680D01*
X236439Y-562880D01*
X241180Y-558820D01*
X245700Y-554520D01*
X250000Y-550000D01*
G37*
G36*
X773439Y-25019D02*
G01*
X767200Y-25259D01*
X760980Y-25820D01*
X754820Y-26700D01*
X748680Y-27879D01*
X742640Y-29400D01*
X736660Y-31220D01*
X730800Y-33340D01*
X725040Y-35760D01*
X719419Y-38480D01*
X713960Y-41480D01*
X708640Y-44760D01*
X703520Y-48320D01*
X698560Y-52120D01*
X693820Y-56180D01*
X689300Y-60480D01*
X685000Y-65000D01*
X865000Y-65000D01*
X860699Y-60480D01*
X856180Y-56180D01*
X851440Y-52120D01*
X846480Y-48320D01*
X841360Y-44760D01*
X836040Y-41480D01*
X830580Y-38480D01*
X824960Y-35760D01*
X819200Y-33340D01*
X813340Y-31220D01*
X807360Y-29400D01*
X801320Y-27879D01*
X795180Y-26700D01*
X789020Y-25820D01*
X782800Y-25259D01*
X776560Y-25019D01*
G37*
G36*
X685000Y-525000D02*
G01*
X689300Y-529520D01*
X693820Y-533820D01*
X698560Y-537880D01*
X703520Y-541680D01*
X708640Y-545240D01*
X713960Y-548520D01*
X719419Y-551520D01*
X725040Y-554240D01*
X730800Y-556660D01*
X736660Y-558780D01*
X742640Y-560600D01*
X748680Y-562120D01*
X754820Y-563300D01*
X760980Y-564180D01*
X767200Y-564740D01*
X773439Y-564980D01*
X779680Y-564900D01*
X785900Y-564500D01*
X792099Y-563780D01*
X798259Y-562740D01*
X801320Y-562120D01*
X807360Y-560600D01*
X813340Y-558780D01*
X819200Y-556660D01*
X824960Y-554240D01*
X830580Y-551520D01*
X836040Y-548520D01*
X841360Y-545240D01*
X846480Y-541680D01*
X851440Y-537880D01*
X856180Y-533820D01*
X860699Y-529520D01*
X865000Y-525000D01*
G37*
G36*
X75000Y-735000D02*
G01*
X70480Y-739300D01*
X66180Y-743820D01*
X62120Y-748560D01*
X58320Y-753520D01*
X54760Y-758640D01*
X51480Y-763960D01*
X48480Y-769419D01*
X45759Y-775040D01*
X43339Y-780800D01*
X41220Y-786660D01*
X39400Y-792640D01*
X37880Y-798680D01*
X36700Y-804820D01*
X35820Y-810980D01*
X35260Y-817200D01*
X35020Y-823439D01*
X35100Y-829680D01*
X35500Y-835900D01*
X36220Y-842099D01*
X37260Y-848259D01*
X37880Y-851320D01*
X39400Y-857360D01*
X41220Y-863340D01*
X43339Y-869200D01*
X45759Y-874960D01*
X48480Y-880580D01*
X51480Y-886040D01*
X54760Y-891360D01*
X58320Y-896480D01*
X62120Y-901440D01*
X66180Y-906180D01*
X70480Y-910699D01*
X75000Y-915000D01*
G37*
G36*
X640000Y-700000D02*
G01*
X635480Y-704300D01*
X631180Y-708820D01*
X627120Y-713560D01*
X623320Y-718520D01*
X619760Y-723640D01*
X616480Y-728960D01*
X613480Y-734419D01*
X610760Y-740040D01*
X608340Y-745800D01*
X606220Y-751660D01*
X604400Y-757640D01*
X602880Y-763680D01*
X601700Y-769820D01*
X600820Y-775980D01*
X600260Y-782200D01*
X600020Y-788439D01*
X600100Y-794680D01*
X600500Y-800900D01*
X601220Y-807099D01*
X602260Y-813259D01*
X602880Y-816320D01*
X604400Y-822360D01*
X606220Y-828340D01*
X608340Y-834200D01*
X610760Y-839960D01*
X613480Y-845580D01*
X616480Y-851040D01*
X619760Y-856360D01*
X623320Y-861480D01*
X627120Y-866440D01*
X631180Y-871180D01*
X635480Y-875699D01*
X640000Y-880000D01*
G37*
G36*
X1326320Y219420D02*
G01*
X1308460Y218700D01*
X1308460Y118699D01*
X1319180Y118699D01*
X1319180Y207979D01*
X1380620Y207979D01*
X1380620Y118699D01*
X1488460Y118699D01*
X1488460Y202280D01*
X1525620Y202280D01*
X1525620Y114420D01*
X1643460Y114420D01*
X1643460Y201560D01*
X1747040Y201560D01*
X1747040Y18700D01*
X1764900Y18700D01*
X1764900Y201560D01*
X1849180Y201560D01*
X1849180Y19420D01*
X1866320Y19420D01*
X1866320Y218700D01*
X1625620Y218700D01*
X1625620Y130140D01*
X1541320Y130140D01*
X1541320Y219420D01*
X1471320Y219420D01*
X1471320Y130840D01*
X1396320Y130840D01*
X1396320Y219420D01*
G37*
D11*
X240000Y-415000D02*
G01*
X200000Y-415000D01*
X220000Y-395000D02*
G01*
X220000Y-435000D01*
X695000Y-200000D02*
G01*
X735000Y-200000D01*
X715000Y-220000D02*
G01*
X715000Y-180000D01*
X855000Y-390000D02*
G01*
X815000Y-390000D01*
X835000Y-370000D02*
G01*
X835000Y-410000D01*
X210000Y-905000D02*
G01*
X210000Y-865000D01*
X230000Y-885000D02*
G01*
X190000Y-885000D01*
X775000Y-870000D02*
G01*
X775000Y-830000D01*
X795000Y-850000D02*
G01*
X755000Y-850000D01*
X1085000Y-1115000D02*
G01*
X1235000Y-1115000D01*
X1220000Y-966999D02*
G01*
X1220000Y-996999D01*
X1205000Y-981999D02*
G01*
X1235000Y-981999D01*
X970000Y-1140000D02*
G01*
X970000Y-1160000D01*
X980000Y-1150000D02*
G01*
X960000Y-1150000D01*
X939219Y-1273976D02*
G01*
X916449Y-1273976D01*
X903550Y-1273976D02*
G01*
X882088Y-1273976D01*
X956460Y-1288566D02*
G01*
X863782Y-1288566D01*
X80000Y-260000D02*
G01*
X80000Y-60000D01*
X180000Y-60000D01*
X180000Y-260000D01*
X80000Y-260000D01*
X2280000Y-50000D02*
G01*
X2280000Y-250000D01*
X2180000Y-250000D01*
X2180000Y-50000D01*
X2280000Y-50000D01*
X2280000Y-310000D02*
G01*
X2280000Y-510000D01*
X2180000Y-510000D01*
X2180000Y-310000D01*
X2280000Y-310000D01*
X1540000Y-870000D02*
G01*
X1740000Y-870000D01*
X1740000Y-970000D01*
X1540000Y-970000D01*
X1540000Y-870000D01*
X1800000Y-870000D02*
G01*
X2000000Y-870000D01*
X2000000Y-970000D01*
X1800000Y-970000D01*
X1800000Y-870000D01*
X2280000Y-670925D02*
G01*
X2280000Y-970000D01*
X2180000Y-970000D01*
X2180000Y-570000D01*
X2280000Y-570000D01*
X2280000Y-670925D01*
X2280000Y-670925D02*
G01*
X2180000Y-670925D01*
X385000Y-654969D02*
G01*
X385000Y-697046D01*
X384841Y-952953D02*
G01*
X384841Y-995030D01*
X339724Y-697046D02*
G01*
X430275Y-697046D01*
X430275Y-697046D02*
G01*
X430275Y-952953D01*
X429094Y-952953D02*
G01*
X340905Y-952953D01*
X339724Y-952953D02*
G01*
X339724Y-697046D01*
X989969Y-815000D02*
G01*
X1032047Y-815000D01*
X1287952Y-815158D02*
G01*
X1330030Y-815158D01*
X1032047Y-860275D02*
G01*
X1032047Y-769724D01*
X1032047Y-769724D02*
G01*
X1287952Y-769724D01*
X1287952Y-770906D02*
G01*
X1287952Y-859094D01*
X1287952Y-860275D02*
G01*
X1032047Y-860275D01*
D12*
X1939331Y-18022D02*
G01*
X1939331Y235752D01*
X1230668Y235752D01*
X1230668Y-18022D01*
X1230668Y-468D02*
G01*
X1939331Y-468D01*
X1230668Y-541970D02*
G01*
X1230668Y-551649D01*
X1230668Y-482917D02*
G01*
X1230668Y-490464D01*
X1230668Y-423861D02*
G01*
X1230668Y-431408D01*
X1230668Y-364807D02*
G01*
X1230668Y-372354D01*
X1230668Y-305749D02*
G01*
X1230668Y-313297D01*
X1230668Y-246694D02*
G01*
X1230668Y-254243D01*
X1230668Y-187642D02*
G01*
X1230668Y-195187D01*
X1230668Y-128586D02*
G01*
X1230668Y-136132D01*
X1230668Y-69531D02*
G01*
X1230668Y-77078D01*
X1939331Y-77078D02*
G01*
X1939331Y-69531D01*
X1939331Y-136132D02*
G01*
X1939331Y-128586D01*
X1939331Y-195187D02*
G01*
X1939331Y-187642D01*
X1939331Y-254243D02*
G01*
X1939331Y-246694D01*
X1939331Y-313297D02*
G01*
X1939331Y-305749D01*
X1939331Y-372354D02*
G01*
X1939331Y-364807D01*
X1939331Y-431408D02*
G01*
X1939331Y-423861D01*
X1939331Y-490464D02*
G01*
X1939331Y-482917D01*
X1230668Y-551649D02*
G01*
X1939331Y-551649D01*
X1939331Y-541970D01*
D11*
X378188Y-448706D02*
G01*
X378188Y-31304D01*
X567089Y-31304D01*
X567089Y-448706D01*
X378387Y-448706D01*
X378188Y-448706D01*
X401777Y-31345D02*
G01*
X401777Y-448665D01*
G75*
G01*
X1085000Y-1115000D02*
G02*
X1235000Y-1115000I75000J100000D01*
D13*
G75*
G01*
X591734Y-349059D02*
G03*
X591734Y-348959I7874J50D01*
D11*
G75*
G01
X284000Y-465000D02*
G03X284000Y-465000I-124000J0D01*
G75*
G01
X899000Y-150000D02*
G03X899000Y-150000I-124000J0D01*
G75*
G01
X899000Y-440000D02*
G03X899000Y-440000I-124000J0D01*
G75*
G01
X284000Y-825000D02*
G03X284000Y-825000I-124000J0D01*
G75*
G01
X849000Y-790000D02*
G03X849000Y-790000I-124000J0D01*
G75*
G01
X1260000Y-1015000D02*
G03X1260000Y-1015000I-100000J0D01*
G75*
G01
X1008430Y-1180000D02*
G03X1008430Y-1180000I-98430J0D01*
G75*
G01
X1028110Y-1180000D02*
G03X1028110Y-1180000I-118110J0D01*
D14*
G75*
G01
X1209840Y10000D02*
G03X1209840Y10000I-9840J0D01*
M02*
