G04 Layer: BottomLayer*
G04 EasyEDA v6.5.40, 2024-08-20 21:44:02*
G04 Gerber Generator version 0.2*
G04 Scale: 100 percent, Rotated: No, Reflected: No *
G04 Dimensions in inches *
G04 leading zeros omitted , absolute positions ,3 integer and 6 decimal *
%FSLAX36Y36*%
%MOIN*%

%ADD10C,0.0200*%
%ADD11C,0.0630*%
%ADD12C,0.0709*%
%ADD13R,0.0709X0.0709*%
%ADD14R,0.0669X0.0669*%
%ADD15C,0.0669*%
%ADD16C,0.0551*%
%ADD17O,0.10236200000000001X0.070866*%
%ADD18R,0.1024X0.0709*%
%ADD19C,0.0244*%
%ADD20C,0.0173*%

%LPD*%
G36*
X14200Y-1367760D02*
G01*
X12660Y-1367440D01*
X11379Y-1366579D01*
X10500Y-1365280D01*
X10200Y-1363760D01*
X10200Y-14200D01*
X10500Y-12660D01*
X11379Y-11379D01*
X12660Y-10500D01*
X14200Y-10200D01*
X2348000Y-10200D01*
X2349540Y-10500D01*
X2350820Y-11379D01*
X2351700Y-12660D01*
X2352000Y-14200D01*
X2352000Y-1363760D01*
X2351700Y-1365280D01*
X2350820Y-1366579D01*
X2349540Y-1367440D01*
X2348000Y-1367760D01*
G37*

%LPC*%
G36*
X930220Y-1270820D02*
G01*
X931979Y-1269980D01*
X936820Y-1266920D01*
X941240Y-1263260D01*
X945160Y-1259080D01*
X948520Y-1254440D01*
X950840Y-1250220D01*
X930220Y-1250220D01*
G37*
G36*
X889780Y-1270820D02*
G01*
X889780Y-1250220D01*
X869160Y-1250220D01*
X871480Y-1254440D01*
X874840Y-1259080D01*
X878760Y-1263260D01*
X883180Y-1266920D01*
X888020Y-1269980D01*
G37*
G36*
X930220Y-1209780D02*
G01*
X950840Y-1209780D01*
X948520Y-1205560D01*
X945160Y-1200920D01*
X941240Y-1196740D01*
X936820Y-1193080D01*
X931979Y-1190020D01*
X930220Y-1189180D01*
G37*
G36*
X869160Y-1209780D02*
G01*
X889780Y-1209780D01*
X889780Y-1189180D01*
X888020Y-1190020D01*
X883180Y-1193080D01*
X878760Y-1196740D01*
X874840Y-1200920D01*
X871480Y-1205560D01*
G37*
G36*
X910000Y-1175620D02*
G01*
X915720Y-1175260D01*
X921340Y-1174200D01*
X926800Y-1172420D01*
X931979Y-1169980D01*
X936820Y-1166920D01*
X941240Y-1163260D01*
X945160Y-1159080D01*
X948520Y-1154440D01*
X951280Y-1149420D01*
X953400Y-1144100D01*
X954820Y-1138540D01*
X955540Y-1132860D01*
X955540Y-1127140D01*
X954820Y-1121460D01*
X953400Y-1115900D01*
X951280Y-1110580D01*
X948520Y-1105560D01*
X945160Y-1100920D01*
X941240Y-1096740D01*
X936820Y-1093080D01*
X931979Y-1090020D01*
X926800Y-1087580D01*
X921340Y-1085800D01*
X915720Y-1084740D01*
X910000Y-1084380D01*
X904280Y-1084740D01*
X898660Y-1085800D01*
X893199Y-1087580D01*
X888020Y-1090020D01*
X883180Y-1093080D01*
X878760Y-1096740D01*
X874840Y-1100920D01*
X871480Y-1105560D01*
X868720Y-1110580D01*
X866600Y-1115900D01*
X865180Y-1121460D01*
X864460Y-1127140D01*
X864460Y-1132860D01*
X865180Y-1138540D01*
X866600Y-1144100D01*
X868720Y-1149420D01*
X871480Y-1154440D01*
X874840Y-1159080D01*
X878760Y-1163260D01*
X883180Y-1166920D01*
X888020Y-1169980D01*
X893199Y-1172420D01*
X898660Y-1174200D01*
X904280Y-1175260D01*
G37*
G36*
X1141760Y-1102380D02*
G01*
X1141760Y-1083240D01*
X1122620Y-1083240D01*
X1123900Y-1085840D01*
X1126920Y-1090380D01*
X1130520Y-1094480D01*
X1134620Y-1098080D01*
X1139160Y-1101100D01*
G37*
G36*
X1178240Y-1102380D02*
G01*
X1180840Y-1101100D01*
X1185380Y-1098080D01*
X1189480Y-1094480D01*
X1193080Y-1090380D01*
X1196100Y-1085840D01*
X1197380Y-1083240D01*
X1178240Y-1083240D01*
G37*
G36*
X385000Y-1069440D02*
G01*
X390140Y-1069100D01*
X395180Y-1068040D01*
X400040Y-1066320D01*
X404620Y-1063940D01*
X408820Y-1060980D01*
X412580Y-1057460D01*
X415840Y-1053460D01*
X418519Y-1049060D01*
X420580Y-1044340D01*
X421960Y-1039380D01*
X422660Y-1034260D01*
X422660Y-1029120D01*
X421960Y-1024020D01*
X420580Y-1019060D01*
X418519Y-1014320D01*
X415840Y-1009920D01*
X412580Y-1005920D01*
X408820Y-1002420D01*
X404620Y-999440D01*
X400040Y-997060D01*
X395180Y-995340D01*
X390140Y-994300D01*
X385000Y-993940D01*
X379860Y-994300D01*
X374820Y-995340D01*
X369960Y-997060D01*
X365379Y-999440D01*
X361180Y-1002420D01*
X357420Y-1005920D01*
X354159Y-1009920D01*
X351480Y-1014320D01*
X349440Y-1019060D01*
X348040Y-1024020D01*
X347340Y-1029120D01*
X347340Y-1034260D01*
X348040Y-1039380D01*
X349440Y-1044340D01*
X351480Y-1049060D01*
X354159Y-1053460D01*
X357420Y-1057460D01*
X361180Y-1060980D01*
X365379Y-1063940D01*
X369960Y-1066320D01*
X374820Y-1068040D01*
X379860Y-1069100D01*
G37*
G36*
X1178240Y-1046760D02*
G01*
X1197380Y-1046760D01*
X1196100Y-1044160D01*
X1193080Y-1039620D01*
X1189480Y-1035520D01*
X1185380Y-1031919D01*
X1180840Y-1028900D01*
X1178240Y-1027620D01*
G37*
G36*
X1122620Y-1046760D02*
G01*
X1141760Y-1046760D01*
X1141760Y-1027620D01*
X1139160Y-1028900D01*
X1134620Y-1031919D01*
X1130520Y-1035520D01*
X1126920Y-1039620D01*
X1123900Y-1044160D01*
G37*
G36*
X1160000Y-1006680D02*
G01*
X1165440Y-1006340D01*
X1170780Y-1005260D01*
X1175960Y-1003520D01*
X1180840Y-1001100D01*
X1185380Y-998080D01*
X1189480Y-994479D01*
X1193080Y-990380D01*
X1196100Y-985840D01*
X1198520Y-980960D01*
X1200260Y-975780D01*
X1201340Y-970440D01*
X1201680Y-965000D01*
X1201340Y-959560D01*
X1200260Y-954220D01*
X1198520Y-949040D01*
X1196100Y-944160D01*
X1193080Y-939620D01*
X1189480Y-935520D01*
X1185380Y-931919D01*
X1180840Y-928900D01*
X1175960Y-926480D01*
X1170780Y-924740D01*
X1165440Y-923660D01*
X1160000Y-923319D01*
X1154560Y-923660D01*
X1149220Y-924740D01*
X1144040Y-926480D01*
X1139160Y-928900D01*
X1134620Y-931919D01*
X1130520Y-935520D01*
X1126920Y-939620D01*
X1123900Y-944160D01*
X1121480Y-949040D01*
X1119740Y-954220D01*
X1118660Y-959560D01*
X1118320Y-965000D01*
X1118660Y-970440D01*
X1119740Y-975780D01*
X1121480Y-980960D01*
X1123900Y-985840D01*
X1126920Y-990380D01*
X1130520Y-994479D01*
X1134620Y-998080D01*
X1139160Y-1001100D01*
X1144040Y-1003520D01*
X1149220Y-1005260D01*
X1154560Y-1006340D01*
G37*
G36*
X1814800Y-965639D02*
G01*
X1885200Y-965639D01*
X1887700Y-965360D01*
X1889840Y-964599D01*
X1891780Y-963379D01*
X1893380Y-961780D01*
X1894600Y-959840D01*
X1895360Y-957700D01*
X1895640Y-955200D01*
X1895640Y-884800D01*
X1895360Y-882300D01*
X1894600Y-880160D01*
X1893380Y-878220D01*
X1891780Y-876620D01*
X1889840Y-875400D01*
X1887700Y-874640D01*
X1885200Y-874360D01*
X1814800Y-874360D01*
X1812300Y-874640D01*
X1810160Y-875400D01*
X1808220Y-876620D01*
X1806620Y-878220D01*
X1805400Y-880160D01*
X1804640Y-882300D01*
X1804360Y-884800D01*
X1804360Y-955200D01*
X1804640Y-957700D01*
X1805400Y-959840D01*
X1806620Y-961780D01*
X1808220Y-963379D01*
X1810160Y-964599D01*
X1812300Y-965360D01*
G37*
G36*
X1554800Y-965639D02*
G01*
X1625200Y-965639D01*
X1627700Y-965360D01*
X1629840Y-964599D01*
X1631780Y-963379D01*
X1633380Y-961780D01*
X1634600Y-959840D01*
X1635360Y-957700D01*
X1635640Y-955200D01*
X1635640Y-884800D01*
X1635360Y-882300D01*
X1634600Y-880160D01*
X1633380Y-878220D01*
X1631780Y-876620D01*
X1629840Y-875400D01*
X1627700Y-874640D01*
X1625200Y-874360D01*
X1554800Y-874360D01*
X1552300Y-874640D01*
X1550160Y-875400D01*
X1548220Y-876620D01*
X1546620Y-878220D01*
X1545400Y-880160D01*
X1544640Y-882300D01*
X1544360Y-884800D01*
X1544360Y-955200D01*
X1544640Y-957700D01*
X1545400Y-959840D01*
X1546620Y-961780D01*
X1548220Y-963379D01*
X1550160Y-964599D01*
X1552300Y-965360D01*
G37*
G36*
X1687140Y-965540D02*
G01*
X1692860Y-965540D01*
X1698540Y-964820D01*
X1704100Y-963400D01*
X1709420Y-961280D01*
X1714440Y-958520D01*
X1719079Y-955160D01*
X1723260Y-951240D01*
X1726920Y-946820D01*
X1729980Y-941979D01*
X1732420Y-936800D01*
X1734199Y-931340D01*
X1735260Y-925720D01*
X1735620Y-920000D01*
X1735260Y-914280D01*
X1734199Y-908660D01*
X1732420Y-903199D01*
X1729980Y-898020D01*
X1726920Y-893180D01*
X1723260Y-888760D01*
X1719079Y-884840D01*
X1714440Y-881480D01*
X1712280Y-880280D01*
X1711180Y-879400D01*
X1710460Y-878180D01*
X1710200Y-876780D01*
X1710200Y-835080D01*
X1710120Y-833240D01*
X1709880Y-831500D01*
X1709500Y-829780D01*
X1708980Y-828100D01*
X1708300Y-826460D01*
X1707500Y-824900D01*
X1706540Y-823420D01*
X1705480Y-822020D01*
X1704220Y-820660D01*
X1501380Y-617800D01*
X1500500Y-616500D01*
X1500200Y-614980D01*
X1500200Y-265080D01*
X1500120Y-263240D01*
X1499880Y-261500D01*
X1499500Y-259780D01*
X1498980Y-258100D01*
X1498300Y-256460D01*
X1497500Y-254899D01*
X1496540Y-253420D01*
X1495480Y-252020D01*
X1494220Y-250660D01*
X1416639Y-173060D01*
X1415820Y-171880D01*
X1414540Y-169080D01*
X1412420Y-165940D01*
X1409800Y-163200D01*
X1406740Y-160940D01*
X1403340Y-159220D01*
X1399720Y-158120D01*
X1395960Y-157620D01*
X1392160Y-157800D01*
X1388440Y-158600D01*
X1384920Y-160000D01*
X1381680Y-162000D01*
X1378839Y-164500D01*
X1376440Y-167460D01*
X1374600Y-170780D01*
X1373340Y-174360D01*
X1372700Y-178100D01*
X1372700Y-181900D01*
X1373340Y-185640D01*
X1374600Y-189220D01*
X1376440Y-192540D01*
X1378839Y-195500D01*
X1381680Y-198000D01*
X1384920Y-200000D01*
X1386680Y-200700D01*
X1388020Y-201580D01*
X1458620Y-272200D01*
X1459500Y-273500D01*
X1459800Y-275020D01*
X1459800Y-624920D01*
X1459880Y-626760D01*
X1460120Y-628500D01*
X1460500Y-630220D01*
X1461020Y-631900D01*
X1461699Y-633540D01*
X1462500Y-635100D01*
X1463460Y-636580D01*
X1464520Y-637980D01*
X1465780Y-639340D01*
X1668620Y-842200D01*
X1669500Y-843500D01*
X1669800Y-845020D01*
X1669800Y-876780D01*
X1669540Y-878180D01*
X1668820Y-879400D01*
X1667720Y-880280D01*
X1665560Y-881480D01*
X1660920Y-884840D01*
X1656740Y-888760D01*
X1653080Y-893180D01*
X1650020Y-898020D01*
X1647580Y-903199D01*
X1645800Y-908660D01*
X1644740Y-914280D01*
X1644379Y-920000D01*
X1644740Y-925720D01*
X1645800Y-931340D01*
X1647580Y-936800D01*
X1650020Y-941979D01*
X1653080Y-946820D01*
X1656740Y-951240D01*
X1660920Y-955160D01*
X1665560Y-958520D01*
X1670580Y-961280D01*
X1675900Y-963400D01*
X1681459Y-964820D01*
G37*
G36*
X2230000Y-963660D02*
G01*
X2235580Y-963300D01*
X2241080Y-962220D01*
X2246380Y-960460D01*
X2251420Y-958040D01*
X2256120Y-954980D01*
X2260380Y-951360D01*
X2264140Y-947220D01*
X2267340Y-942640D01*
X2269920Y-937680D01*
X2271860Y-932420D01*
X2273100Y-926960D01*
X2273640Y-921400D01*
X2273460Y-915800D01*
X2272560Y-910280D01*
X2270980Y-904920D01*
X2268700Y-899800D01*
X2265800Y-895020D01*
X2262320Y-890639D01*
X2258300Y-886760D01*
X2253820Y-883420D01*
X2248940Y-880660D01*
X2243760Y-878560D01*
X2238340Y-877140D01*
X2232800Y-876440D01*
X2227200Y-876440D01*
X2221660Y-877140D01*
X2216240Y-878560D01*
X2211060Y-880660D01*
X2206180Y-883420D01*
X2201700Y-886760D01*
X2197680Y-890639D01*
X2194200Y-895020D01*
X2191300Y-899800D01*
X2189040Y-904920D01*
X2187440Y-910280D01*
X2186540Y-915800D01*
X2186360Y-921400D01*
X2186900Y-926960D01*
X2188140Y-932420D01*
X2190080Y-937680D01*
X2192660Y-942640D01*
X2195860Y-947220D01*
X2199620Y-951360D01*
X2203880Y-954980D01*
X2208580Y-958040D01*
X2213620Y-960460D01*
X2218920Y-962220D01*
X2224420Y-963300D01*
G37*
G36*
X1970220Y-960840D02*
G01*
X1974440Y-958520D01*
X1979079Y-955160D01*
X1983260Y-951240D01*
X1986920Y-946820D01*
X1989980Y-941979D01*
X1990820Y-940220D01*
X1970220Y-940220D01*
G37*
G36*
X1929780Y-960840D02*
G01*
X1929780Y-940220D01*
X1909180Y-940220D01*
X1910020Y-941979D01*
X1913080Y-946820D01*
X1916740Y-951240D01*
X1920920Y-955160D01*
X1925560Y-958520D01*
G37*
G36*
X1909180Y-899780D02*
G01*
X1929780Y-899780D01*
X1929780Y-879160D01*
X1925560Y-881480D01*
X1920920Y-884840D01*
X1916740Y-888760D01*
X1913080Y-893180D01*
X1910020Y-898020D01*
G37*
G36*
X1970220Y-899780D02*
G01*
X1990820Y-899780D01*
X1989980Y-898020D01*
X1986920Y-893180D01*
X1983260Y-888760D01*
X1979079Y-884840D01*
X1974440Y-881480D01*
X1970220Y-879160D01*
G37*
G36*
X210000Y-866680D02*
G01*
X215440Y-866340D01*
X220780Y-865260D01*
X225960Y-863520D01*
X230840Y-861100D01*
X235380Y-858080D01*
X239480Y-854479D01*
X243080Y-850380D01*
X246100Y-845840D01*
X248520Y-840960D01*
X250260Y-835780D01*
X251340Y-830440D01*
X251680Y-825000D01*
X251340Y-819560D01*
X250260Y-814220D01*
X248520Y-809040D01*
X246100Y-804160D01*
X243080Y-799620D01*
X239480Y-795520D01*
X235380Y-791919D01*
X230840Y-788900D01*
X225960Y-786480D01*
X220780Y-784740D01*
X215440Y-783660D01*
X210000Y-783319D01*
X204560Y-783660D01*
X199220Y-784740D01*
X194040Y-786480D01*
X189160Y-788900D01*
X184620Y-791919D01*
X180520Y-795520D01*
X176920Y-799620D01*
X173900Y-804160D01*
X171480Y-809040D01*
X169740Y-814220D01*
X168660Y-819560D01*
X168320Y-825000D01*
X168660Y-830440D01*
X169740Y-835780D01*
X171480Y-840960D01*
X173900Y-845840D01*
X176920Y-850380D01*
X180520Y-854479D01*
X184620Y-858080D01*
X189160Y-861100D01*
X194040Y-863520D01*
X199220Y-865260D01*
X204560Y-866340D01*
G37*
G36*
X2230000Y-863660D02*
G01*
X2235580Y-863300D01*
X2241080Y-862220D01*
X2246380Y-860460D01*
X2251420Y-858040D01*
X2256120Y-854980D01*
X2260380Y-851360D01*
X2264140Y-847220D01*
X2267340Y-842640D01*
X2269920Y-837680D01*
X2271860Y-832420D01*
X2273100Y-826960D01*
X2273640Y-821400D01*
X2273460Y-815800D01*
X2272560Y-810280D01*
X2270980Y-804920D01*
X2268700Y-799800D01*
X2265800Y-795020D01*
X2262320Y-790639D01*
X2258300Y-786760D01*
X2253820Y-783420D01*
X2248940Y-780660D01*
X2243760Y-778560D01*
X2238340Y-777140D01*
X2232800Y-776440D01*
X2227200Y-776440D01*
X2221660Y-777140D01*
X2216240Y-778560D01*
X2211060Y-780660D01*
X2206180Y-783420D01*
X2201700Y-786760D01*
X2197680Y-790639D01*
X2194200Y-795020D01*
X2191300Y-799800D01*
X2189040Y-804920D01*
X2187440Y-810280D01*
X2186540Y-815800D01*
X2186360Y-821400D01*
X2186900Y-826960D01*
X2188140Y-832420D01*
X2190080Y-837680D01*
X2192660Y-842640D01*
X2195860Y-847220D01*
X2199620Y-851360D01*
X2203880Y-854980D01*
X2208580Y-858040D01*
X2213620Y-860460D01*
X2218920Y-862220D01*
X2224420Y-863300D01*
G37*
G36*
X128240Y-862380D02*
G01*
X130840Y-861100D01*
X135380Y-858080D01*
X139480Y-854479D01*
X143080Y-850380D01*
X146100Y-845840D01*
X147380Y-843240D01*
X128240Y-843240D01*
G37*
G36*
X91760Y-862380D02*
G01*
X91760Y-843240D01*
X72620Y-843240D01*
X73900Y-845840D01*
X76920Y-850380D01*
X80520Y-854479D01*
X84620Y-858080D01*
X89160Y-861100D01*
G37*
G36*
X1364120Y-852660D02*
G01*
X1369259Y-852660D01*
X1374379Y-851960D01*
X1379340Y-850580D01*
X1384060Y-848520D01*
X1388460Y-845840D01*
X1392460Y-842580D01*
X1395980Y-838820D01*
X1398940Y-834620D01*
X1401320Y-830040D01*
X1403040Y-825180D01*
X1404100Y-820140D01*
X1404440Y-815000D01*
X1404100Y-809860D01*
X1403040Y-804820D01*
X1401320Y-799960D01*
X1398940Y-795380D01*
X1395980Y-791180D01*
X1392460Y-787420D01*
X1388460Y-784160D01*
X1384060Y-781480D01*
X1379340Y-779440D01*
X1374379Y-778040D01*
X1369259Y-777340D01*
X1364120Y-777340D01*
X1359019Y-778040D01*
X1354060Y-779440D01*
X1349319Y-781480D01*
X1344920Y-784160D01*
X1340920Y-787420D01*
X1337420Y-791180D01*
X1334440Y-795380D01*
X1332060Y-799960D01*
X1330340Y-804820D01*
X1329300Y-809860D01*
X1328940Y-815000D01*
X1329300Y-820140D01*
X1330340Y-825180D01*
X1332060Y-830040D01*
X1334440Y-834620D01*
X1337420Y-838820D01*
X1340920Y-842580D01*
X1344920Y-845840D01*
X1349319Y-848520D01*
X1354060Y-850580D01*
X1359019Y-851960D01*
G37*
G36*
X950740Y-852660D02*
G01*
X955879Y-852660D01*
X960980Y-851960D01*
X965939Y-850580D01*
X970680Y-848520D01*
X975080Y-845840D01*
X979080Y-842580D01*
X982580Y-838820D01*
X985560Y-834620D01*
X987940Y-830040D01*
X989659Y-825180D01*
X990699Y-820140D01*
X991060Y-815000D01*
X990699Y-809860D01*
X989659Y-804820D01*
X987940Y-799960D01*
X985560Y-795380D01*
X982580Y-791180D01*
X979080Y-787420D01*
X975080Y-784160D01*
X970680Y-781480D01*
X965939Y-779440D01*
X960980Y-778040D01*
X955879Y-777340D01*
X950740Y-777340D01*
X945620Y-778040D01*
X940660Y-779440D01*
X935939Y-781480D01*
X931540Y-784160D01*
X927540Y-787420D01*
X924020Y-791180D01*
X921060Y-795380D01*
X918680Y-799960D01*
X916960Y-804820D01*
X915900Y-809860D01*
X915560Y-815000D01*
X915900Y-820140D01*
X916960Y-825180D01*
X918680Y-830040D01*
X921060Y-834620D01*
X924020Y-838820D01*
X927540Y-842580D01*
X931540Y-845840D01*
X935939Y-848520D01*
X940660Y-850580D01*
X945620Y-851960D01*
G37*
G36*
X775000Y-831680D02*
G01*
X780440Y-831340D01*
X785780Y-830260D01*
X790960Y-828520D01*
X795840Y-826100D01*
X800380Y-823080D01*
X804479Y-819479D01*
X808080Y-815380D01*
X811100Y-810840D01*
X813520Y-805960D01*
X815260Y-800780D01*
X816340Y-795440D01*
X816680Y-790000D01*
X816340Y-784560D01*
X815260Y-779220D01*
X813520Y-774040D01*
X811100Y-769160D01*
X808080Y-764620D01*
X804479Y-760520D01*
X800380Y-756919D01*
X795840Y-753900D01*
X790960Y-751480D01*
X785780Y-749740D01*
X780440Y-748660D01*
X775000Y-748319D01*
X769560Y-748660D01*
X764220Y-749740D01*
X759040Y-751480D01*
X754160Y-753900D01*
X749620Y-756919D01*
X745520Y-760520D01*
X741919Y-764620D01*
X738900Y-769160D01*
X736480Y-774040D01*
X734740Y-779220D01*
X733660Y-784560D01*
X733319Y-790000D01*
X733660Y-795440D01*
X734740Y-800780D01*
X736480Y-805960D01*
X738900Y-810840D01*
X741919Y-815380D01*
X745520Y-819479D01*
X749620Y-823080D01*
X754160Y-826100D01*
X759040Y-828520D01*
X764220Y-830260D01*
X769560Y-831340D01*
G37*
G36*
X656760Y-827380D02*
G01*
X656760Y-808240D01*
X637620Y-808240D01*
X638900Y-810840D01*
X641919Y-815380D01*
X645520Y-819479D01*
X649620Y-823080D01*
X654160Y-826100D01*
G37*
G36*
X693240Y-827380D02*
G01*
X695840Y-826100D01*
X700380Y-823080D01*
X704479Y-819479D01*
X708080Y-815380D01*
X711100Y-810840D01*
X712380Y-808240D01*
X693240Y-808240D01*
G37*
G36*
X128240Y-806760D02*
G01*
X147380Y-806760D01*
X146100Y-804160D01*
X143080Y-799620D01*
X139480Y-795520D01*
X135380Y-791919D01*
X130840Y-788900D01*
X128240Y-787620D01*
G37*
G36*
X72620Y-806760D02*
G01*
X91760Y-806760D01*
X91760Y-787620D01*
X89160Y-788900D01*
X84620Y-791919D01*
X80520Y-795520D01*
X76920Y-799620D01*
X73900Y-804160D01*
G37*
G36*
X637620Y-771760D02*
G01*
X656760Y-771760D01*
X656760Y-752620D01*
X654160Y-753900D01*
X649620Y-756919D01*
X645520Y-760520D01*
X641919Y-764620D01*
X638900Y-769160D01*
G37*
G36*
X693240Y-771760D02*
G01*
X712380Y-771760D01*
X711100Y-769160D01*
X708080Y-764620D01*
X704479Y-760520D01*
X700380Y-756919D01*
X695840Y-753900D01*
X693240Y-752620D01*
G37*
G36*
X2210760Y-759100D02*
G01*
X2210760Y-739240D01*
X2190900Y-739240D01*
X2192660Y-742640D01*
X2195860Y-747220D01*
X2199620Y-751360D01*
X2203880Y-754980D01*
X2208580Y-758040D01*
G37*
G36*
X2249240Y-759100D02*
G01*
X2251420Y-758040D01*
X2256120Y-754980D01*
X2260380Y-751360D01*
X2264140Y-747220D01*
X2267340Y-742640D01*
X2269100Y-739240D01*
X2249240Y-739240D01*
G37*
G36*
X2190860Y-700759D02*
G01*
X2210760Y-700759D01*
X2210760Y-680840D01*
X2206180Y-683420D01*
X2201700Y-686760D01*
X2197680Y-690639D01*
X2194200Y-695020D01*
X2191300Y-699800D01*
G37*
G36*
X2249240Y-700759D02*
G01*
X2269140Y-700759D01*
X2268700Y-699800D01*
X2265800Y-695020D01*
X2262320Y-690639D01*
X2258300Y-686760D01*
X2253820Y-683420D01*
X2249240Y-680840D01*
G37*
G36*
X2196760Y-663660D02*
G01*
X2263240Y-663660D01*
X2265720Y-663379D01*
X2267880Y-662640D01*
X2269800Y-661420D01*
X2271420Y-659800D01*
X2272640Y-657880D01*
X2273380Y-655720D01*
X2273660Y-653240D01*
X2273660Y-586760D01*
X2273380Y-584280D01*
X2272640Y-582120D01*
X2271420Y-580200D01*
X2269800Y-578580D01*
X2267880Y-577360D01*
X2265720Y-576620D01*
X2263240Y-576340D01*
X2254200Y-576340D01*
X2252660Y-576040D01*
X2251380Y-575160D01*
X2250500Y-573860D01*
X2250200Y-572340D01*
X2250200Y-503320D01*
X2250420Y-502000D01*
X2251060Y-500820D01*
X2252060Y-499940D01*
X2256820Y-496920D01*
X2261240Y-493260D01*
X2265160Y-489080D01*
X2268520Y-484440D01*
X2271280Y-479420D01*
X2273400Y-474099D01*
X2274820Y-468540D01*
X2275540Y-462860D01*
X2275540Y-457140D01*
X2274820Y-451460D01*
X2273400Y-445900D01*
X2271280Y-440580D01*
X2268520Y-435560D01*
X2265160Y-430920D01*
X2261240Y-426740D01*
X2256820Y-423080D01*
X2251980Y-420020D01*
X2246800Y-417580D01*
X2241340Y-415800D01*
X2235720Y-414739D01*
X2230000Y-414380D01*
X2224280Y-414739D01*
X2218660Y-415800D01*
X2217760Y-416100D01*
X2216320Y-416300D01*
X2214900Y-415940D01*
X2213700Y-415120D01*
X2211020Y-412460D01*
X2210160Y-411160D01*
X2209860Y-409640D01*
X2210160Y-408100D01*
X2211020Y-406800D01*
X2212320Y-405940D01*
X2213860Y-405640D01*
X2265200Y-405640D01*
X2267700Y-405360D01*
X2269840Y-404600D01*
X2271780Y-403380D01*
X2273380Y-401780D01*
X2274600Y-399840D01*
X2275360Y-397700D01*
X2275640Y-395200D01*
X2275640Y-324799D01*
X2275360Y-322299D01*
X2274600Y-320160D01*
X2273380Y-318220D01*
X2271780Y-316620D01*
X2269840Y-315400D01*
X2267700Y-314640D01*
X2265200Y-314360D01*
X2194800Y-314360D01*
X2192300Y-314640D01*
X2190160Y-315400D01*
X2188220Y-316620D01*
X2186620Y-318220D01*
X2185400Y-320160D01*
X2184640Y-322299D01*
X2184360Y-324799D01*
X2184360Y-395200D01*
X2184640Y-397700D01*
X2185280Y-399480D01*
X2185500Y-400980D01*
X2185140Y-402460D01*
X2184260Y-403700D01*
X2182980Y-404520D01*
X2181500Y-404799D01*
X2105020Y-404799D01*
X2103500Y-404500D01*
X2102200Y-403620D01*
X1729340Y-30780D01*
X1727980Y-29520D01*
X1726579Y-28460D01*
X1725100Y-27500D01*
X1723540Y-26700D01*
X1721900Y-26020D01*
X1720220Y-25500D01*
X1718500Y-25120D01*
X1716759Y-24880D01*
X1714920Y-24800D01*
X1405440Y-24800D01*
X1404520Y-24700D01*
X1403340Y-24220D01*
X1399720Y-23120D01*
X1395960Y-22620D01*
X1392160Y-22799D01*
X1388440Y-23600D01*
X1384920Y-25000D01*
X1381680Y-27000D01*
X1378839Y-29500D01*
X1376440Y-32460D01*
X1374600Y-35780D01*
X1373340Y-39360D01*
X1372700Y-43099D01*
X1372700Y-46900D01*
X1373340Y-50640D01*
X1374600Y-54220D01*
X1376440Y-57539D01*
X1378839Y-60500D01*
X1381680Y-63000D01*
X1384920Y-65000D01*
X1388440Y-66400D01*
X1392160Y-67200D01*
X1395960Y-67380D01*
X1399720Y-66880D01*
X1403340Y-65780D01*
X1404520Y-65300D01*
X1405440Y-65199D01*
X1704980Y-65199D01*
X1706500Y-65500D01*
X1707800Y-66380D01*
X2080660Y-439219D01*
X2082020Y-440480D01*
X2083420Y-441540D01*
X2084900Y-442500D01*
X2086459Y-443300D01*
X2088100Y-443980D01*
X2089780Y-444500D01*
X2091500Y-444880D01*
X2093240Y-445120D01*
X2095080Y-445200D01*
X2181640Y-445200D01*
X2183060Y-445460D01*
X2184300Y-446220D01*
X2185180Y-447360D01*
X2185600Y-448740D01*
X2185500Y-450200D01*
X2185180Y-451460D01*
X2184460Y-457140D01*
X2184460Y-462860D01*
X2185180Y-468540D01*
X2186600Y-474099D01*
X2188720Y-479420D01*
X2191480Y-484440D01*
X2194840Y-489080D01*
X2198760Y-493260D01*
X2203180Y-496920D01*
X2207940Y-499940D01*
X2208940Y-500820D01*
X2209580Y-502000D01*
X2209800Y-503320D01*
X2209800Y-572340D01*
X2209500Y-573860D01*
X2208620Y-575160D01*
X2207340Y-576040D01*
X2205800Y-576340D01*
X2196760Y-576340D01*
X2194280Y-576620D01*
X2192120Y-577360D01*
X2190200Y-578580D01*
X2188580Y-580200D01*
X2187360Y-582120D01*
X2186620Y-584280D01*
X2186340Y-586760D01*
X2186340Y-653240D01*
X2186620Y-655720D01*
X2187360Y-657880D01*
X2188580Y-659800D01*
X2190200Y-661420D01*
X2192120Y-662640D01*
X2194280Y-663379D01*
G37*
G36*
X385000Y-656060D02*
G01*
X390140Y-655699D01*
X395180Y-654659D01*
X400040Y-652940D01*
X404620Y-650560D01*
X408820Y-647580D01*
X412580Y-644080D01*
X415840Y-640080D01*
X418519Y-635680D01*
X420580Y-630940D01*
X421960Y-625980D01*
X422660Y-620880D01*
X422660Y-615740D01*
X421960Y-610620D01*
X420580Y-605660D01*
X418519Y-600940D01*
X415840Y-596540D01*
X412580Y-592540D01*
X408820Y-589020D01*
X404620Y-586060D01*
X400040Y-583680D01*
X395180Y-581960D01*
X390140Y-580900D01*
X385000Y-580560D01*
X379860Y-580900D01*
X374820Y-581960D01*
X369960Y-583680D01*
X365379Y-586060D01*
X361180Y-589020D01*
X357420Y-592540D01*
X354159Y-596540D01*
X351480Y-600940D01*
X349440Y-605660D01*
X348040Y-610620D01*
X347340Y-615740D01*
X347340Y-620880D01*
X348040Y-625980D01*
X349440Y-630940D01*
X351480Y-635680D01*
X354159Y-640080D01*
X357420Y-644080D01*
X361180Y-647580D01*
X365379Y-650560D01*
X369960Y-652940D01*
X374820Y-654659D01*
X379860Y-655699D01*
G37*
G36*
X178240Y-552380D02*
G01*
X180840Y-551100D01*
X185380Y-548080D01*
X189480Y-544480D01*
X193080Y-540380D01*
X196100Y-535840D01*
X197380Y-533240D01*
X178240Y-533240D01*
G37*
G36*
X141760Y-552380D02*
G01*
X141760Y-533240D01*
X122620Y-533240D01*
X123900Y-535840D01*
X126920Y-540380D01*
X130520Y-544480D01*
X134620Y-548080D01*
X139160Y-551100D01*
G37*
G36*
X756760Y-527380D02*
G01*
X756760Y-508240D01*
X737620Y-508240D01*
X738900Y-510840D01*
X741919Y-515379D01*
X745520Y-519480D01*
X749620Y-523080D01*
X754160Y-526100D01*
G37*
G36*
X793240Y-527380D02*
G01*
X795840Y-526100D01*
X800380Y-523080D01*
X804479Y-519480D01*
X808080Y-515379D01*
X811100Y-510840D01*
X812380Y-508240D01*
X793240Y-508240D01*
G37*
G36*
X122620Y-496760D02*
G01*
X141760Y-496760D01*
X141760Y-477620D01*
X139160Y-478900D01*
X134620Y-481920D01*
X130520Y-485520D01*
X126920Y-489620D01*
X123900Y-494159D01*
G37*
G36*
X178240Y-496760D02*
G01*
X197380Y-496760D01*
X196100Y-494159D01*
X193080Y-489620D01*
X189480Y-485520D01*
X185380Y-481920D01*
X180840Y-478900D01*
X178240Y-477620D01*
G37*
G36*
X737620Y-471760D02*
G01*
X756760Y-471760D01*
X756760Y-452620D01*
X754160Y-453900D01*
X749620Y-456920D01*
X745520Y-460520D01*
X741919Y-464620D01*
X738900Y-469159D01*
G37*
G36*
X793240Y-471760D02*
G01*
X812380Y-471760D01*
X811100Y-469159D01*
X808080Y-464620D01*
X804479Y-460520D01*
X800380Y-456920D01*
X795840Y-453900D01*
X793240Y-452620D01*
G37*
G36*
X160000Y-456680D02*
G01*
X165440Y-456340D01*
X170780Y-455260D01*
X175960Y-453519D01*
X180840Y-451100D01*
X185380Y-448080D01*
X189480Y-444480D01*
X193080Y-440379D01*
X196100Y-435840D01*
X198520Y-430959D01*
X200260Y-425780D01*
X201340Y-420439D01*
X201680Y-415000D01*
X201340Y-409560D01*
X200260Y-404219D01*
X198520Y-399040D01*
X196100Y-394159D01*
X193080Y-389620D01*
X189480Y-385520D01*
X185380Y-381920D01*
X180840Y-378900D01*
X175960Y-376480D01*
X170780Y-374739D01*
X165440Y-373660D01*
X160000Y-373320D01*
X154560Y-373660D01*
X149220Y-374739D01*
X144040Y-376480D01*
X139160Y-378900D01*
X134620Y-381920D01*
X130520Y-385520D01*
X126920Y-389620D01*
X123900Y-394159D01*
X121480Y-399040D01*
X119740Y-404219D01*
X118660Y-409560D01*
X118320Y-415000D01*
X118660Y-420439D01*
X119740Y-425780D01*
X121480Y-430959D01*
X123900Y-435840D01*
X126920Y-440379D01*
X130520Y-444480D01*
X134620Y-448080D01*
X139160Y-451100D01*
X144040Y-453519D01*
X149220Y-455260D01*
X154560Y-456340D01*
G37*
G36*
X775000Y-431680D02*
G01*
X780440Y-431340D01*
X785780Y-430260D01*
X790960Y-428519D01*
X795840Y-426100D01*
X800380Y-423080D01*
X804479Y-419480D01*
X808080Y-415379D01*
X811100Y-410840D01*
X813520Y-405959D01*
X815260Y-400780D01*
X816340Y-395439D01*
X816680Y-390000D01*
X816340Y-384560D01*
X815260Y-379219D01*
X813520Y-374040D01*
X811100Y-369159D01*
X808080Y-364620D01*
X804479Y-360520D01*
X800380Y-356920D01*
X795840Y-353900D01*
X790960Y-351480D01*
X785780Y-349739D01*
X780440Y-348660D01*
X775000Y-348320D01*
X769560Y-348660D01*
X764220Y-349739D01*
X759040Y-351480D01*
X754160Y-353900D01*
X749620Y-356920D01*
X745520Y-360520D01*
X741919Y-364620D01*
X738900Y-369159D01*
X736480Y-374040D01*
X734740Y-379219D01*
X733660Y-384560D01*
X733319Y-390000D01*
X733660Y-395439D01*
X734740Y-400780D01*
X736480Y-405959D01*
X738900Y-410840D01*
X741919Y-415379D01*
X745520Y-419480D01*
X749620Y-423080D01*
X754160Y-426100D01*
X759040Y-428519D01*
X764220Y-430260D01*
X769560Y-431340D01*
G37*
G36*
X527900Y-385640D02*
G01*
X550760Y-385640D01*
X553260Y-385360D01*
X555400Y-384600D01*
X557320Y-383400D01*
X558940Y-381780D01*
X560160Y-379860D01*
X560900Y-377700D01*
X561180Y-375220D01*
X561180Y-360220D01*
X527900Y-360220D01*
G37*
G36*
X448840Y-385640D02*
G01*
X471719Y-385640D01*
X471719Y-360220D01*
X438420Y-360220D01*
X438420Y-375220D01*
X438700Y-377700D01*
X439460Y-379860D01*
X440660Y-381780D01*
X442280Y-383400D01*
X444200Y-384600D01*
X446360Y-385360D01*
G37*
G36*
X527900Y-319780D02*
G01*
X561180Y-319780D01*
X561180Y-304800D01*
X560900Y-302300D01*
X560160Y-300160D01*
X558940Y-298220D01*
X557320Y-296620D01*
X555400Y-295400D01*
X553260Y-294660D01*
X550760Y-294380D01*
X527900Y-294380D01*
G37*
G36*
X438420Y-319780D02*
G01*
X471719Y-319780D01*
X471719Y-294380D01*
X448840Y-294380D01*
X446360Y-294660D01*
X444200Y-295400D01*
X442280Y-296620D01*
X440660Y-298220D01*
X439460Y-300160D01*
X438700Y-302300D01*
X438420Y-304800D01*
G37*
G36*
X484180Y-285640D02*
G01*
X515420Y-285640D01*
X521280Y-285280D01*
X526900Y-284200D01*
X532340Y-282420D01*
X537540Y-279980D01*
X542380Y-276920D01*
X546780Y-273260D01*
X550700Y-269080D01*
X554080Y-264460D01*
X556840Y-259440D01*
X558940Y-254100D01*
X560360Y-248560D01*
X561080Y-242860D01*
X561080Y-237140D01*
X560360Y-231460D01*
X558940Y-225900D01*
X556840Y-220580D01*
X554080Y-215560D01*
X550700Y-210920D01*
X546780Y-206740D01*
X542380Y-203100D01*
X537540Y-200020D01*
X532340Y-197580D01*
X526900Y-195820D01*
X521280Y-194740D01*
X515420Y-194380D01*
X484180Y-194380D01*
X478340Y-194740D01*
X472720Y-195820D01*
X467260Y-197580D01*
X462080Y-200020D01*
X457239Y-203100D01*
X452819Y-206740D01*
X448900Y-210920D01*
X445540Y-215560D01*
X442780Y-220580D01*
X440660Y-225900D01*
X439240Y-231460D01*
X438519Y-237140D01*
X438519Y-242860D01*
X439240Y-248560D01*
X440660Y-254100D01*
X442780Y-259440D01*
X445540Y-264460D01*
X448900Y-269080D01*
X452819Y-273260D01*
X457239Y-276920D01*
X462080Y-279980D01*
X467260Y-282420D01*
X472720Y-284200D01*
X478340Y-285280D01*
G37*
G36*
X94800Y-255640D02*
G01*
X165200Y-255640D01*
X167700Y-255360D01*
X169840Y-254600D01*
X171780Y-253380D01*
X173380Y-251780D01*
X174600Y-249840D01*
X175360Y-247700D01*
X175640Y-245200D01*
X175640Y-174800D01*
X175360Y-172300D01*
X174600Y-170159D01*
X173380Y-168220D01*
X171780Y-166620D01*
X169840Y-165400D01*
X167700Y-164640D01*
X165200Y-164360D01*
X94800Y-164360D01*
X92300Y-164640D01*
X90160Y-165400D01*
X88219Y-166620D01*
X86620Y-168220D01*
X85399Y-170159D01*
X84640Y-172300D01*
X84360Y-174800D01*
X84360Y-245200D01*
X84640Y-247700D01*
X85399Y-249840D01*
X86620Y-251780D01*
X88219Y-253380D01*
X90160Y-254600D01*
X92300Y-255360D01*
G37*
G36*
X775000Y-241680D02*
G01*
X780440Y-241340D01*
X785780Y-240260D01*
X790960Y-238520D01*
X795840Y-236100D01*
X800380Y-233080D01*
X804479Y-229480D01*
X808080Y-225380D01*
X811100Y-220840D01*
X813520Y-215960D01*
X815260Y-210780D01*
X816340Y-205440D01*
X816680Y-200000D01*
X816340Y-194560D01*
X815260Y-189220D01*
X813520Y-184040D01*
X811100Y-179160D01*
X808080Y-174620D01*
X804479Y-170520D01*
X800380Y-166920D01*
X795840Y-163900D01*
X790960Y-161480D01*
X785780Y-159740D01*
X780440Y-158660D01*
X775000Y-158320D01*
X769560Y-158660D01*
X764220Y-159740D01*
X759040Y-161480D01*
X754160Y-163900D01*
X749620Y-166920D01*
X745520Y-170520D01*
X741919Y-174620D01*
X738900Y-179160D01*
X736480Y-184040D01*
X734740Y-189220D01*
X733660Y-194560D01*
X733319Y-200000D01*
X733660Y-205440D01*
X734740Y-210780D01*
X736480Y-215960D01*
X738900Y-220840D01*
X741919Y-225380D01*
X745520Y-229480D01*
X749620Y-233080D01*
X754160Y-236100D01*
X759040Y-238520D01*
X764220Y-240260D01*
X769560Y-241340D01*
G37*
G36*
X2209780Y-240820D02*
G01*
X2209780Y-220219D01*
X2189160Y-220219D01*
X2191480Y-224440D01*
X2194840Y-229080D01*
X2198760Y-233260D01*
X2203180Y-236920D01*
X2208020Y-239980D01*
G37*
G36*
X2250220Y-240820D02*
G01*
X2251980Y-239980D01*
X2256820Y-236920D01*
X2261240Y-233260D01*
X2265160Y-229080D01*
X2268520Y-224440D01*
X2270840Y-220219D01*
X2250220Y-220219D01*
G37*
G36*
X484580Y-185640D02*
G01*
X515820Y-185640D01*
X521659Y-185280D01*
X527300Y-184200D01*
X532740Y-182420D01*
X537920Y-179980D01*
X542760Y-176920D01*
X547180Y-173260D01*
X551100Y-169080D01*
X554460Y-164460D01*
X557220Y-159440D01*
X559340Y-154100D01*
X560760Y-148560D01*
X561480Y-142860D01*
X561480Y-137140D01*
X560760Y-131460D01*
X559340Y-125900D01*
X557220Y-120580D01*
X554460Y-115559D01*
X551100Y-110920D01*
X547180Y-106740D01*
X542760Y-103100D01*
X537920Y-100020D01*
X532740Y-97579D01*
X527300Y-95820D01*
X521659Y-94740D01*
X515820Y-94380D01*
X484580Y-94380D01*
X478740Y-94740D01*
X473100Y-95820D01*
X467660Y-97579D01*
X462480Y-100020D01*
X457640Y-103100D01*
X453220Y-106740D01*
X449300Y-110920D01*
X445920Y-115559D01*
X443160Y-120580D01*
X441060Y-125900D01*
X439640Y-131460D01*
X438920Y-137140D01*
X438920Y-142860D01*
X439640Y-148560D01*
X441060Y-154100D01*
X443160Y-159440D01*
X445920Y-164460D01*
X449300Y-169080D01*
X453220Y-173260D01*
X457640Y-176920D01*
X462480Y-179980D01*
X467660Y-182420D01*
X473100Y-184200D01*
X478740Y-185280D01*
G37*
G36*
X2189160Y-179780D02*
G01*
X2209780Y-179780D01*
X2209780Y-159180D01*
X2208020Y-160020D01*
X2203180Y-163080D01*
X2198760Y-166740D01*
X2194840Y-170920D01*
X2191480Y-175560D01*
G37*
G36*
X2250220Y-179780D02*
G01*
X2270840Y-179780D01*
X2268520Y-175560D01*
X2265160Y-170920D01*
X2261240Y-166740D01*
X2256820Y-163080D01*
X2251980Y-160020D01*
X2250220Y-159180D01*
G37*
G36*
X109780Y-150820D02*
G01*
X109780Y-130220D01*
X89160Y-130220D01*
X91480Y-134440D01*
X94840Y-139080D01*
X98760Y-143260D01*
X103180Y-146920D01*
X108020Y-149980D01*
G37*
G36*
X150220Y-150820D02*
G01*
X151980Y-149980D01*
X156820Y-146920D01*
X161240Y-143260D01*
X165159Y-139080D01*
X168520Y-134440D01*
X170840Y-130220D01*
X150220Y-130220D01*
G37*
G36*
X2194800Y-145640D02*
G01*
X2265200Y-145640D01*
X2267700Y-145360D01*
X2269840Y-144600D01*
X2271780Y-143380D01*
X2273380Y-141780D01*
X2274600Y-139840D01*
X2275360Y-137700D01*
X2275640Y-135200D01*
X2275640Y-64800D01*
X2275360Y-62300D01*
X2274600Y-60160D01*
X2273380Y-58220D01*
X2271780Y-56620D01*
X2269840Y-55400D01*
X2267700Y-54640D01*
X2265200Y-54360D01*
X2194800Y-54360D01*
X2192300Y-54640D01*
X2190160Y-55400D01*
X2188220Y-56620D01*
X2186620Y-58220D01*
X2185400Y-60160D01*
X2184640Y-62300D01*
X2184360Y-64800D01*
X2184360Y-135200D01*
X2184640Y-137700D01*
X2185400Y-139840D01*
X2186620Y-141780D01*
X2188220Y-143380D01*
X2190160Y-144600D01*
X2192300Y-145360D01*
G37*
G36*
X756760Y-137380D02*
G01*
X756760Y-118240D01*
X737620Y-118240D01*
X738900Y-120840D01*
X741919Y-125380D01*
X745520Y-129480D01*
X749620Y-133080D01*
X754160Y-136100D01*
G37*
G36*
X793240Y-137380D02*
G01*
X795840Y-136100D01*
X800380Y-133080D01*
X804479Y-129480D01*
X808080Y-125380D01*
X811100Y-120840D01*
X812380Y-118240D01*
X793240Y-118240D01*
G37*
G36*
X150220Y-89780D02*
G01*
X170840Y-89780D01*
X168520Y-85559D01*
X165159Y-80920D01*
X161240Y-76740D01*
X156820Y-73080D01*
X151980Y-70020D01*
X150220Y-69180D01*
G37*
G36*
X89160Y-89780D02*
G01*
X109780Y-89780D01*
X109780Y-69180D01*
X108020Y-70020D01*
X103180Y-73080D01*
X98760Y-76740D01*
X94840Y-80920D01*
X91480Y-85559D01*
G37*
G36*
X737620Y-81760D02*
G01*
X756760Y-81760D01*
X756760Y-62619D01*
X754160Y-63900D01*
X749620Y-66920D01*
X745520Y-70520D01*
X741919Y-74620D01*
X738900Y-79160D01*
G37*
G36*
X793240Y-81760D02*
G01*
X812380Y-81760D01*
X811100Y-79160D01*
X808080Y-74620D01*
X804479Y-70520D01*
X800380Y-66920D01*
X795840Y-63900D01*
X793240Y-62619D01*
G37*

%LPD*%
D10*
X1395000Y-180000D02*
G01*
X1480000Y-265000D01*
X1480000Y-625000D01*
X1690000Y-835000D01*
X1690000Y-920000D01*
X2230000Y-460000D02*
G01*
X2195000Y-425000D01*
X2095000Y-425000D01*
X1715000Y-45000D01*
X1395000Y-45000D01*
X2230000Y-620000D02*
G01*
X2230000Y-460000D01*
D11*
G01*
X160000Y-415000D03*
G01*
X160000Y-515000D03*
G01*
X775000Y-200000D03*
G01*
X775000Y-100000D03*
G01*
X775000Y-390000D03*
G01*
X775000Y-490000D03*
G01*
X210000Y-825000D03*
G01*
X110000Y-825000D03*
G01*
X775000Y-790000D03*
G01*
X675000Y-790000D03*
G01*
X1160000Y-965000D03*
G01*
X1160000Y-1065000D03*
D12*
G01*
X910000Y-1130000D03*
G01*
X910000Y-1230000D03*
G01*
X130000Y-110000D03*
D13*
G01*
X130000Y-210000D03*
D12*
G01*
X2230000Y-200000D03*
D13*
G01*
X2230000Y-100000D03*
D12*
G01*
X2230000Y-460000D03*
D13*
G01*
X2230000Y-360000D03*
D12*
G01*
X1690000Y-920000D03*
D13*
G01*
X1590000Y-920000D03*
D12*
G01*
X1950000Y-920000D03*
D13*
G01*
X1850000Y-920000D03*
D14*
G01*
X2230000Y-620000D03*
D15*
G01*
X2230000Y-720000D03*
G01*
X2230000Y-820000D03*
G01*
X2230000Y-920000D03*
D16*
G01*
X385000Y-618310D03*
G01*
X385000Y-1031689D03*
G01*
X953310Y-815000D03*
G01*
X1366689Y-815000D03*
D17*
G01*
X499810Y-240010D03*
G01*
X500199Y-140000D03*
D18*
G01*
X499800Y-340010D03*
D19*
G01*
X1395000Y-45000D03*
G01*
X1395000Y-180000D03*
M02*
